<svg width="14" height="11" viewBox="0 0 14 11" fill="none" xmlns="http://www.w3.org/2000/svg">
<path d="M2.81244 7.61514H3.5V6.04371H5.53467V7.61514H6.22222V3.38486H5.53389V5.34914H3.5V3.38486H2.81167L2.81244 7.61514ZM7.77778 7.61514H10.3507C10.5809 7.61514 10.7779 7.53238 10.9418 7.36686C11.1056 7.20133 11.1876 7.00228 11.1876 6.76971V4.23107C11.1876 3.9985 11.1056 3.79919 10.9418 3.63314C10.7779 3.46762 10.5809 3.38486 10.3507 3.38486H7.77778V7.61514ZM8.46611 6.92057V4.07943H10.2604C10.3206 4.07943 10.3756 4.10483 10.4253 4.15564C10.4751 4.20593 10.5 4.26119 10.5 4.32143V6.67857C10.5 6.73933 10.4751 6.79486 10.4253 6.84514C10.3756 6.89543 10.3206 6.92057 10.2604 6.92057H8.46611ZM1.25611 11C0.898333 11 0.599667 10.879 0.360111 10.637C0.120556 10.395 0.000518519 10.0928 0 9.73028V1.26971C0 0.907762 0.120037 0.605785 0.360111 0.363786C0.600185 0.121786 0.898852 0.000523809 1.25611 0H12.7439C13.1017 0 13.4003 0.121262 13.6399 0.363786C13.8794 0.606309 13.9995 0.908286 14 1.26971V9.73107C14 10.0925 13.88 10.3945 13.6399 10.637C13.3998 10.8795 13.1011 11.0005 12.7439 11H1.25611ZM1.25611 10.2143H12.7439C12.8631 10.2143 12.9728 10.164 13.0729 10.0634C13.173 9.96286 13.2227 9.85181 13.2222 9.73028V1.26971C13.2222 1.14871 13.1724 1.03767 13.0729 0.936571C12.9733 0.835476 12.8637 0.78519 12.7439 0.785714H1.25611C1.13685 0.785714 1.02719 0.836 0.927111 0.936571C0.827037 1.03714 0.777259 1.14819 0.777778 1.26971V9.73107C0.777778 9.85155 0.827555 9.96233 0.927111 10.0634C1.02667 10.1645 1.13633 10.2148 1.25611 10.2143Z" fill="black"/>
</svg>
