<svg width="13" height="11" viewBox="0 0 13 11" fill="none" xmlns="http://www.w3.org/2000/svg">
<path d="M6.49992 9.08852L3.04262 10.9438C2.94103 10.9884 2.84674 11.0064 2.75975 10.998C2.6734 10.9889 2.58927 10.9624 2.50736 10.9184C2.42482 10.8733 2.36259 10.8095 2.32068 10.7271C2.27878 10.6447 2.27497 10.5547 2.30926 10.4571L3.2293 6.97848L0.186303 4.63398C0.100585 4.57191 0.0440745 4.49771 0.0167717 4.41138C-0.0105311 4.32505 -0.00449904 4.24238 0.0348678 4.16339C0.0742346 4.08439 0.126618 4.0195 0.192018 3.96872C0.258052 3.91963 0.346945 3.88634 0.458696 3.86884L4.47411 3.55737L6.0399 0.263227C6.08308 0.170124 6.1453 0.102977 6.22657 0.0617863C6.30785 0.0205954 6.39896 0 6.49992 0C6.60088 0 6.69231 0.0205954 6.77422 0.0617863C6.85613 0.102977 6.91803 0.170124 6.95994 0.263227L8.52572 3.55737L12.5402 3.86884C12.6526 3.88577 12.7418 3.91934 12.8078 3.96956C12.8739 4.01922 12.9266 4.08383 12.9659 4.16339C13.0047 4.24238 13.0104 4.32505 12.9831 4.41138C12.9558 4.49771 12.8993 4.57191 12.8135 4.63398L9.77054 6.97848L10.6906 10.4571C10.7261 10.5536 10.7226 10.6433 10.6801 10.7263C10.6376 10.8092 10.575 10.873 10.4925 10.9176C10.4112 10.9627 10.3271 10.9895 10.2401 10.998C10.1537 11.0064 10.0598 10.9884 9.95817 10.9438L6.49992 9.08852Z" fill="black"/>
</svg>
