<svg width="14" height="13" viewBox="0 0 14 13" fill="none" xmlns="http://www.w3.org/2000/svg">
<path d="M2.31068 12.1712C2.17476 12.2904 2.01052 12.3474 1.81796 12.3422C1.6254 12.337 1.46683 12.2692 1.34223 12.1387C0.945793 11.7271 0.622977 11.2721 0.373786 10.7737C0.124595 10.2754 0 9.74458 0 9.18125C0 8.63958 0.0792879 8.11417 0.237864 7.605C0.39644 7.09583 0.588997 6.5975 0.815534 6.11C0.985437 5.72 1.14401 5.32718 1.29126 4.93155C1.43851 4.53592 1.51214 4.12707 1.51214 3.705C1.51214 3.32583 1.41019 2.97375 1.20631 2.64875C1.00243 2.32375 0.753236 2.03125 0.458738 1.77125C0.322815 1.65208 0.254854 1.50302 0.254854 1.32405C0.254854 1.14509 0.317152 0.990819 0.441747 0.861252C0.566343 0.731685 0.7222 0.663869 0.90932 0.657802C1.09644 0.651735 1.25773 0.708719 1.3932 0.828752C1.82362 1.20792 2.1777 1.64125 2.45544 2.12875C2.73317 2.61625 2.87181 3.14167 2.87136 3.705C2.87136 4.21417 2.79502 4.7099 2.64233 5.1922C2.48964 5.6745 2.30547 6.14835 2.08981 6.61375C1.89725 7.02542 1.72735 7.4399 1.5801 7.8572C1.43285 8.2745 1.35922 8.71043 1.35922 9.165C1.35922 9.56583 1.44984 9.9424 1.63107 10.2947C1.8123 10.647 2.05016 10.9692 2.34466 11.2612C2.46925 11.3912 2.52883 11.5457 2.5234 11.7247C2.51796 11.9037 2.44705 12.0525 2.31068 12.1712ZM5.02913 12.1712C4.8932 12.2904 4.72896 12.3474 4.53641 12.3422C4.34385 12.337 4.18527 12.2692 4.06068 12.1387C3.66424 11.7271 3.34142 11.2721 3.09223 10.7737C2.84304 10.2754 2.71845 9.74458 2.71845 9.18125C2.71845 8.63958 2.79773 8.11417 2.95631 7.605C3.11489 7.09583 3.30744 6.5975 3.53398 6.11C3.70388 5.72 3.86246 5.32718 4.00971 4.93155C4.15696 4.53592 4.23058 4.12707 4.23058 3.705C4.23058 3.32583 4.12864 2.97375 3.92476 2.64875C3.72087 2.32375 3.47168 2.03125 3.17718 1.77125C3.04126 1.65208 2.9733 1.50302 2.9733 1.32405C2.9733 1.14509 3.0356 0.990819 3.16019 0.861252C3.28479 0.731685 3.44065 0.663869 3.62777 0.657802C3.81489 0.651735 3.97618 0.708719 4.11165 0.828752C4.54207 1.20792 4.89615 1.64125 5.17388 2.12875C5.45162 2.61625 5.59026 3.14167 5.5898 3.705C5.5898 4.21417 5.51346 4.70708 5.36078 5.18375C5.20809 5.66042 5.02391 6.13167 4.80825 6.5975C4.61569 7.00917 4.44579 7.42625 4.29854 7.84875C4.15129 8.27125 4.07767 8.71 4.07767 9.165C4.07767 9.56583 4.16828 9.9424 4.34951 10.2947C4.53074 10.647 4.76861 10.9692 5.06311 11.2612C5.1877 11.3912 5.24728 11.5457 5.24184 11.7247C5.23641 11.9037 5.1655 12.0525 5.02913 12.1712ZM6.52427 12.35V0.650002C6.52427 0.465835 6.58951 0.311569 6.72 0.187202C6.85048 0.0628356 7.01178 0.000435575 7.20388 2.24138e-06C7.39599 -0.000431092 7.55751 0.061969 7.68844 0.187202C7.81938 0.312436 7.8844 0.466702 7.88349 0.650002V2.6975L9.6165 1.05625C9.7411 0.937085 9.89696 0.877502 10.0841 0.877502C10.2712 0.877502 10.4325 0.942502 10.568 1.0725C10.6926 1.19167 10.7549 1.34333 10.7549 1.5275C10.7549 1.71167 10.6926 1.86333 10.568 1.9825L7.88349 4.55V5.85H9.24272L11.9272 3.2825C12.0518 3.16333 12.2104 3.10375 12.4029 3.10375C12.5955 3.10375 12.754 3.16333 12.8786 3.2825C13.0032 3.40167 13.0655 3.55333 13.0655 3.7375C13.0655 3.92167 13.0032 4.07333 12.8786 4.1925L11.1796 5.85H13.3204C13.5129 5.85 13.6745 5.9124 13.8049 6.0372C13.9354 6.162 14.0005 6.31627 14 6.5C13.9995 6.68373 13.9343 6.83822 13.8043 6.96345C13.6742 7.08868 13.5129 7.15087 13.3204 7.15H11.1796L12.8956 8.8075C13.0202 8.92667 13.0825 9.07573 13.0825 9.2547C13.0825 9.43367 13.0146 9.58793 12.8786 9.7175C12.754 9.83667 12.5955 9.89625 12.4029 9.89625C12.2104 9.89625 12.0518 9.83667 11.9272 9.7175L9.24272 7.15H7.88349V8.45L10.568 11.0175C10.6926 11.1367 10.7549 11.2883 10.7549 11.4725C10.7549 11.6567 10.6926 11.8083 10.568 11.9275C10.4434 12.0467 10.2848 12.1062 10.0922 12.1062C9.89967 12.1062 9.7411 12.0467 9.6165 11.9275L7.88349 10.3025V12.35C7.88349 12.5342 7.81825 12.6886 7.68777 12.8134C7.55728 12.9382 7.39599 13.0004 7.20388 13C7.01178 12.9996 6.85048 12.9372 6.72 12.8128C6.58951 12.6884 6.52427 12.5342 6.52427 12.35Z" fill="black"/>
</svg>
