<svg width="13" height="16" viewBox="0 0 13 16" fill="none" xmlns="http://www.w3.org/2000/svg">
<path d="M12.3333 4.54167C12.3333 5.48098 11.9602 6.38181 11.296 7.046C10.6318 7.71019 9.73098 8.08333 8.79167 8.08333C7.85236 8.08333 6.95152 7.71019 6.28733 7.046C5.62314 6.38181 5.25 5.48098 5.25 4.54167C5.25 3.60236 5.62314 2.70152 6.28733 2.03733C6.95152 1.37314 7.85236 1 8.79167 1C9.73098 1 10.6318 1.37314 11.296 2.03733C11.9602 2.70152 12.3333 3.60236 12.3333 4.54167Z" stroke="black"/>
<path d="M9.05729 2.77075L7.72917 4.54159H9.85417L8.52604 6.31242M1 9.49992H2.69646C2.90471 9.49992 3.11013 9.54667 3.29642 9.63734L4.74283 10.3372C4.92913 10.4271 5.13454 10.4739 5.3435 10.4739H6.08158C6.79558 10.4739 7.375 11.0342 7.375 11.7255C7.375 11.7538 7.35587 11.7779 7.32825 11.7857L5.52837 12.2837C5.20541 12.3729 4.86103 12.3417 4.55937 12.1958L3.01308 11.4478M7.375 11.2708L10.6284 10.2713C10.9116 10.1844 11.2151 10.1892 11.4954 10.2849C11.7758 10.3807 12.0187 10.5626 12.1895 10.8047C12.4509 11.1659 12.3447 11.6844 11.9636 11.904L6.64046 14.976C6.47401 15.0723 6.2897 15.1338 6.09875 15.1565C5.9078 15.1793 5.71422 15.163 5.52979 15.1085L1 13.7641" stroke="black" stroke-linecap="round" stroke-linejoin="round"/>
</svg>
