<svg width="16" height="16" viewBox="0 0 16 16" fill="none" xmlns="http://www.w3.org/2000/svg">
<path d="M9.66669 6.13098L7.33335 4.76431L7.18669 3.17764L8.66669 2.17764L8.00002 1.51098L6.86669 2.51098L5.66669 1.51098L5.06002 2.11764L6.20002 3.25764V4.76431L4.33335 5.84431L3.00002 5.25764L2.56669 3.51098L1.53335 3.76431L2.00002 5.17764L0.666687 5.51098L1.01335 6.54431L2.56669 6.13098L3.90002 6.88431L4.00002 8.99992L2.66669 9.84431L1.01335 9.15098L0.666687 10.1776L2.33335 10.511L2.00002 11.8443L2.82002 12.271L3.23335 10.7176L4.56669 9.96431L6.66669 10.9999V12.431L5.33335 13.6666L6.00669 14.511L6.86669 13.651L7.72669 14.511L8.33335 13.9999L7.53335 12.431V10.9243L9.66669 9.66659M5.06002 6.69463L6.86669 5.51098L8.85336 6.69463V9.01764L6.86669 10.1776L4.86669 9.01764M12.8667 3.17764C12.1267 3.17764 11.5334 3.77098 11.5334 4.51098V9.01764C11.1067 9.39764 10.8667 9.94431 10.8667 10.511C10.8667 11.6176 11.76 12.511 12.8667 12.511C13.9734 12.511 14.8667 11.6176 14.8667 10.511C14.8667 9.94431 14.6267 9.39764 14.2 9.02431V4.51098C14.2 3.77098 13.6067 3.17764 12.8667 3.17764ZM12.8667 3.84431C13.2334 3.84431 13.5334 4.14431 13.5334 4.51098V5.17764H12.2V4.51098C12.2 4.14431 12.5 3.84431 12.8667 3.84431Z" fill="black"/>
</svg>
