<svg width="14" height="11" viewBox="0 0 14 11" fill="none" xmlns="http://www.w3.org/2000/svg">
<path d="M2.40625 0C1.76807 0 1.15603 0.265587 0.704774 0.738335C0.253515 1.21108 0 1.85227 0 2.52083V8.47917C0 9.14773 0.253515 9.78892 0.704774 10.2617C1.15603 10.7344 1.76807 11 2.40625 11H11.5938C12.2319 11 12.844 10.7344 13.2952 10.2617C13.7465 9.78892 14 9.14773 14 8.47917V2.52083C14 1.85227 13.7465 1.21108 13.2952 0.738335C12.844 0.265587 12.2319 0 11.5938 0H2.40625ZM0.875 2.52083C0.875 1.63533 1.561 0.916667 2.40625 0.916667H11.5938C12.439 0.916667 13.125 1.63533 13.125 2.52083V8.47917C13.125 8.90462 12.9637 9.31264 12.6765 9.61348C12.3893 9.91432 11.9999 10.0833 11.5938 10.0833H2.40625C2.00014 10.0833 1.61066 9.91432 1.32349 9.61348C1.03633 9.31264 0.875 8.90462 0.875 8.47917V2.52083ZM2.1875 3.20833C2.30353 3.20833 2.41481 3.25662 2.49686 3.34258C2.57891 3.42853 2.625 3.54511 2.625 3.66667V5.04167H4.375V3.66667C4.375 3.54511 4.42109 3.42853 4.50314 3.34258C4.58519 3.25662 4.69647 3.20833 4.8125 3.20833C4.92853 3.20833 5.03981 3.25662 5.12186 3.34258C5.20391 3.42853 5.25 3.54511 5.25 3.66667V7.33333C5.25 7.45489 5.20391 7.57147 5.12186 7.65742C5.03981 7.74338 4.92853 7.79167 4.8125 7.79167C4.69647 7.79167 4.58519 7.74338 4.50314 7.65742C4.42109 7.57147 4.375 7.45489 4.375 7.33333V5.95833H2.625V7.33333C2.625 7.45489 2.57891 7.57147 2.49686 7.65742C2.41481 7.74338 2.30353 7.79167 2.1875 7.79167C2.07147 7.79167 1.96019 7.74338 1.87814 7.65742C1.79609 7.57147 1.75 7.45489 1.75 7.33333V3.66667C1.75 3.54511 1.79609 3.42853 1.87814 3.34258C1.96019 3.25662 2.07147 3.20833 2.1875 3.20833ZM6.125 3.66667C6.125 3.54511 6.17109 3.42853 6.25314 3.34258C6.33519 3.25662 6.44647 3.20833 6.5625 3.20833H6.78125C7.30339 3.20833 7.80415 3.42563 8.17337 3.81243C8.54258 4.19922 8.75 4.72382 8.75 5.27083V5.72917C8.75 6.27618 8.54258 6.80078 8.17337 7.18757C7.80415 7.57437 7.30339 7.79167 6.78125 7.79167H6.5625C6.44647 7.79167 6.33519 7.74338 6.25314 7.65742C6.17109 7.57147 6.125 7.45489 6.125 7.33333V3.66667ZM7 6.85208C7.49875 6.74575 7.875 6.28375 7.875 5.72917V5.27083C7.875 4.71625 7.49875 4.25333 7 4.14792V6.85208ZM9.625 3.66667C9.625 3.54511 9.67109 3.42853 9.75314 3.34258C9.83519 3.25662 9.94647 3.20833 10.0625 3.20833H10.9375C11.2161 3.20815 11.4875 3.30084 11.7125 3.47299C11.9374 3.64513 12.1043 3.8878 12.1889 4.16587C12.2734 4.44395 12.2714 4.743 12.1829 5.01976C12.0945 5.29652 11.9243 5.53663 11.697 5.70533L12.222 7.172C12.2628 7.28578 12.2589 7.41189 12.211 7.5226C12.1872 7.57742 12.1534 7.62681 12.1115 7.66794C12.0695 7.70907 12.0203 7.74115 11.9665 7.76233C11.8579 7.80512 11.7375 7.80096 11.6318 7.75076C11.5262 7.70056 11.4438 7.60844 11.403 7.49467L10.8526 5.95833H10.5V7.33333C10.5 7.45489 10.4539 7.57147 10.3719 7.65742C10.2898 7.74338 10.1785 7.79167 10.0625 7.79167C9.94647 7.79167 9.83519 7.74338 9.75314 7.65742C9.67109 7.57147 9.625 7.45489 9.625 7.33333V3.66667ZM10.5 5.04167H10.9375C11.0535 5.04167 11.1648 4.99338 11.2469 4.90742C11.3289 4.82147 11.375 4.70489 11.375 4.58333C11.375 4.46178 11.3289 4.3452 11.2469 4.25924C11.1648 4.17329 11.0535 4.125 10.9375 4.125H10.5V5.04167Z" fill="black"/>
</svg>
