<svg width="16" height="16" viewBox="0 0 16 16" fill="none" xmlns="http://www.w3.org/2000/svg">
<path d="M15 6.91111H9.71111M10.3333 11.2787V12.8222C10.3333 12.9872 10.2678 13.1455 10.1511 13.2622C10.0344 13.3789 9.87613 13.4444 9.71111 13.4444H1.62222C1.54051 13.4444 1.4596 13.4284 1.38411 13.3971C1.30862 13.3658 1.24002 13.32 1.18224 13.2622C1.12447 13.2044 1.07863 13.1358 1.04736 13.0603C1.01609 12.9848 1 12.9039 1 12.8222V8C1 7.91829 1.01609 7.83738 1.04736 7.76189C1.07863 7.68639 1.12447 7.6178 1.18224 7.56002C1.24002 7.50224 1.30862 7.45641 1.38411 7.42514C1.4596 7.39387 1.54051 7.37778 1.62222 7.37778H7.81397M4.11111 13.4444L3.33333 15M7.22222 13.4444L8 15M1.99429 4.65714C2.52706 4.30911 3.14966 4.12377 3.78603 4.12377C4.42241 4.12377 5.04501 4.30911 5.57778 4.65714M6.5727 3.0527C5.75371 2.48681 4.78183 2.18371 3.78635 2.18371C2.79087 2.18371 1.81899 2.48681 1 3.0527M10.6444 1H14.0667C14.0667 1 15 1 15 1.93333V8.46667C15 8.46667 15 9.4 14.0667 9.4H10.6444C10.6444 9.4 9.71111 9.4 9.71111 8.46667V1.93333C9.71111 1.93333 9.71111 1 10.6444 1Z" stroke="black" stroke-linecap="round" stroke-linejoin="round"/>
</svg>
