<svg width="15" height="15" viewBox="0 0 15 15" fill="none" xmlns="http://www.w3.org/2000/svg">
<path d="M7.47355 13.7295C1.99955 13.7295 0.270548 12.0275 1.26755 8.94946H13.6795C14.6765 12.0275 12.9475 13.7295 7.47355 13.7295Z" stroke="black" stroke-linejoin="round"/>
<path d="M4.68958 4.70752C5.79458 6.13252 6.18558 7.56852 6.34258 8.92252" stroke="black" stroke-linecap="round" stroke-linejoin="round"/>
<path d="M1.82758 8.94355C1.22758 7.66855 1.41758 6.19755 2.25058 5.47055C2.11998 5.28857 2.00618 5.09511 1.91058 4.89255C1.21258 3.41055 1.61558 1.75255 2.81058 1.18855C4.00858 0.624552 5.54458 1.36855 6.24258 2.85055C6.33991 3.05922 6.41658 3.26922 6.47258 3.48055C7.46458 3.31755 8.56458 3.90655 9.20758 4.97355L9.39458 5.33655" stroke="black" stroke-linecap="round" stroke-linejoin="round"/>
<path d="M8.12052 8.81759H13.3725C13.4545 8.52159 13.4959 8.19226 13.4965 7.82959C13.4965 6.06959 12.5065 5.07959 10.7465 5.07959C8.98652 5.07959 7.99652 6.06959 7.99652 7.82959C7.99652 8.19226 8.03785 8.52159 8.12052 8.81759Z" stroke="black" stroke-linecap="round" stroke-linejoin="round"/>
</svg>
