<svg width="12" height="14" viewBox="0 0 12 14" fill="none" xmlns="http://www.w3.org/2000/svg">
<path d="M6.00001 0.875C3.98051 0.875 2.56709 2.24933 2.51547 4.26825C2.5049 4.69264 2.49974 5.11715 2.50001 5.54167C2.50001 6.01125 2.50584 6.43417 2.51547 6.81508C2.5668 8.834 3.98022 10.2083 6.00001 10.2083C8.0198 10.2083 9.43293 8.834 9.48455 6.81508C9.49447 6.43417 9.50001 6.01125 9.50001 5.54167C9.50001 5.07208 9.49418 4.64917 9.48455 4.26825C9.43322 2.24933 8.01951 0.875 6.00001 0.875Z" stroke="black" stroke-linecap="round" stroke-linejoin="round"/>
<path d="M9.48484 6.81508C9.43292 8.834 8.0195 10.2083 6 10.2083C3.9805 10.2083 2.56709 8.834 2.51546 6.81508C2.51039 6.63094 2.43391 6.45599 2.30219 6.32721C2.17047 6.19843 1.99384 6.12591 1.80963 6.125H1.49375C1.08892 6.125 0.762837 6.46362 0.773045 6.86846C0.840129 9.50687 2.45888 11.4118 4.87796 11.8583C4.90042 12.0805 4.9293 12.3037 4.96546 12.5248C5.02 12.857 5.28192 13.1043 5.6185 13.118C5.8602 13.1274 6.10218 13.1274 6.34388 13.118C6.68017 13.1043 6.94238 12.857 6.9978 12.5248C7.03413 12.3057 7.0635 12.0856 7.08588 11.8647C9.52509 11.4307 11.1593 9.52 11.2273 6.86846C11.2372 6.46333 10.9108 6.125 10.5063 6.125H10.1901C10.0059 6.12599 9.82931 6.19852 9.6976 6.32729C9.5659 6.45605 9.4894 6.63096 9.48425 6.81508H9.48484Z" stroke="black" stroke-linecap="round" stroke-linejoin="round"/>
</svg>
