<svg width="78" height="79" viewBox="0 0 78 79" fill="none" xmlns="http://www.w3.org/2000/svg">
<path d="M57.0626 36.1197C52.77 36.1125 48.5805 37.4342 45.0692 39.9034C43.8431 37.0624 42.2469 34.3958 40.3222 31.973L33.8438 23.8192C34.5455 23.4919 35.1153 22.9362 35.4602 22.243C35.8051 21.5498 35.9046 20.7601 35.7425 20.003C35.5804 19.246 35.1662 18.5663 34.5677 18.0751C33.9692 17.5839 33.2218 17.3103 32.4476 17.299H31.7356L35.1842 7.26033C35.4762 6.43912 35.5652 5.55945 35.4437 4.69637C35.3221 3.8333 34.9936 3.01244 34.4861 2.30384C33.986 1.58764 33.3193 1.00375 32.5434 0.60243C31.7675 0.201114 30.9057 -0.00559117 30.0322 0.00011501C29.235 -0.000111531 28.4473 0.173392 27.7239 0.508552C27.0005 0.843711 26.3589 1.33247 25.8436 1.94083L24.0007 4.1887C23.5678 3.65815 22.9675 2.93213 22.1298 1.95479C21.617 1.3435 20.9759 0.852694 20.2519 0.517269C19.528 0.181845 18.739 0.0100419 17.9412 0.014077C17.0734 0.0101439 16.2176 0.21636 15.4468 0.615103C14.6761 1.01385 14.0133 1.59326 13.5152 2.30384C13.0077 3.01244 12.6792 3.8333 12.5576 4.69637C12.4361 5.55945 12.5251 6.43912 12.8171 7.26033L16.3355 17.299H15.6235C14.8422 17.2914 14.0818 17.5515 13.4688 18.036C12.8559 18.5206 12.4273 19.2004 12.2543 19.9623C12.0814 20.7243 12.1745 21.5225 12.5182 22.2242C12.8619 22.9259 13.4355 23.4888 14.1435 23.8192L7.67913 31.973C2.71348 38.2492 0.00816473 46.0159 5.45076e-05 54.0189C-0.0101319 58.7982 1.40763 63.4716 4.0715 67.4397C6.73537 71.4077 10.5239 74.4895 14.9511 76.2898C19.3784 78.0901 24.2425 78.5269 28.9197 77.544C33.5968 76.5611 37.8737 74.2034 41.2018 70.7733C43.4943 73.4298 46.4175 75.4677 49.703 76.6998C52.9884 77.932 56.5308 78.3189 60.0048 77.825C63.4788 77.3311 66.773 75.9723 69.5849 73.8733C72.3968 71.7743 74.6362 69.0025 76.0975 65.8123C77.5588 62.6221 78.1951 59.116 77.948 55.6158C77.7009 52.1156 76.5783 48.7335 74.6833 45.7803C72.7883 42.8271 70.1817 40.3974 67.1028 38.7142C64.0239 37.0311 60.5715 36.1485 57.0626 36.1476V36.1197ZM14.9673 6.50639C14.7161 5.80548 14.7196 5.0385 14.9774 4.33997C15.2351 3.64144 15.7306 3.05595 16.3768 2.68618C17.0231 2.31642 17.7789 2.18598 18.5117 2.31776C19.2445 2.44953 19.9076 2.83509 20.3845 3.40683C22.3392 5.7664 22.8418 6.40865 22.9535 6.56223C23.045 6.76294 23.1924 6.93295 23.3782 7.05184C23.564 7.17073 23.7801 7.23343 24.0007 7.23241C24.22 7.23611 24.4354 7.17432 24.6195 7.05494C24.8035 6.93556 24.9478 6.76402 25.0338 6.56223C25.1595 6.40865 25.6342 5.7664 27.6168 3.40683C28.0967 2.84513 28.7577 2.46871 29.4857 2.34264C30.2136 2.21657 30.9627 2.34876 31.6035 2.71636C32.2444 3.08397 32.7366 3.6639 32.9953 4.35592C33.2539 5.04795 33.2627 5.80858 33.0201 6.50639L29.3202 17.299H18.751L14.9673 6.50639ZM15.6235 19.5469H32.3778C32.6815 19.5469 32.9727 19.6675 33.1874 19.8822C33.4021 20.0969 33.5227 20.3881 33.5227 20.6917C33.5227 20.9954 33.4021 21.2866 33.1874 21.5013C32.9727 21.716 32.6815 21.8366 32.3778 21.8366H15.6235C15.3198 21.8366 15.0286 21.716 14.8139 21.5013C14.5992 21.2866 14.4786 20.9954 14.4786 20.6917C14.4786 20.3881 14.5992 20.0969 14.8139 19.8822C15.0286 19.6675 15.3198 19.5469 15.6235 19.5469ZM24.0007 75.7018C18.2497 75.6945 12.736 73.4086 8.66678 69.3446C4.5976 65.2807 2.30458 59.7699 2.28982 54.0189C2.29516 46.5336 4.82341 39.2686 9.46626 33.3971L16.7544 24.1543H20.1472C20.1472 26.5418 19.84 32.4198 15.4978 34.3046C15.2578 34.4107 15.0616 34.596 14.9419 34.8295C14.8222 35.063 14.7863 35.3305 14.8403 35.5873C14.8943 35.8441 15.0348 36.0745 15.2384 36.2401C15.4419 36.4056 15.6962 36.4962 15.9586 36.4967C16.1174 36.4981 16.2747 36.4647 16.4193 36.3989C22.0041 33.9556 22.4928 27.0305 22.4369 24.1543H25.4806C25.4806 27.0305 25.9134 33.9277 31.4982 36.3989C31.6428 36.4647 31.8001 36.4981 31.959 36.4967C32.1803 36.4931 32.3961 36.4269 32.5814 36.3059C32.7667 36.1848 32.9139 36.0138 33.0061 35.8125C33.1281 35.5348 33.1348 35.22 33.0249 34.9373C32.9149 34.6545 32.6973 34.427 32.4197 34.3046C28.0915 32.4198 27.7285 26.5418 27.7704 24.1543H31.1492L38.4792 33.3971C40.4054 35.8214 41.98 38.5052 43.1565 41.3694C39.3304 44.7593 36.8762 49.4315 36.2564 54.5055C35.6366 59.5796 36.894 64.7051 39.7916 68.9163C37.7629 71.0683 35.3156 72.7828 32.6001 73.9545C29.8845 75.1261 26.9582 75.7303 24.0007 75.7298V75.7018ZM57.0626 75.7018C53.3694 75.7018 49.7592 74.6063 46.6888 72.5539C43.6184 70.5015 41.2258 67.5844 39.8137 64.1719C38.4017 60.7593 38.0336 57.0045 38.7562 53.3827C39.4787 49.7608 41.2594 46.4347 43.8728 43.8252C46.4863 41.2156 49.815 39.44 53.4379 38.7229C57.0608 38.0057 60.8151 38.3794 64.2255 39.7966C67.636 41.2137 70.5495 43.6107 72.5973 46.6841C74.6451 49.7576 75.7352 53.3694 75.7297 57.0626C75.7223 62.0112 73.7532 66.755 70.2541 70.2541C66.7549 73.7533 62.0111 75.7224 57.0626 75.7298V75.7018Z" fill="white"/>
<path d="M57.0626 40.6851C53.8234 40.6851 50.657 41.6456 47.9638 43.4451C45.2705 45.2447 43.1714 47.8025 41.9318 50.7951C40.6923 53.7877 40.368 57.0806 40.9999 60.2575C41.6318 63.4344 43.1916 66.3526 45.482 68.643C47.7724 70.9334 50.6906 72.4932 53.8675 73.1251C57.0444 73.757 60.3373 73.4327 63.3299 72.1932C66.3225 70.9536 68.8803 68.8545 70.6799 66.1612C72.4794 63.468 73.4399 60.3016 73.4399 57.0624C73.4362 52.72 71.7096 48.5565 68.639 45.486C65.5685 42.4154 61.405 40.6888 57.0626 40.6851ZM57.0626 71.164C54.2753 71.1557 51.5531 70.3217 49.2396 68.7671C46.9261 67.2126 45.1252 65.0074 44.0643 62.4299C43.0034 59.8525 42.7301 57.0184 43.279 54.2858C43.8278 51.5531 45.1741 49.0444 47.1479 47.0764C49.1217 45.1084 51.6344 43.7696 54.3687 43.2288C57.103 42.6881 59.9362 42.9698 62.5105 44.0383C65.0848 45.1069 67.2847 46.9143 68.8324 49.2324C70.38 51.5505 71.206 54.2752 71.206 57.0624C71.2097 58.9208 70.8464 60.7616 70.1369 62.4793C69.4274 64.1969 68.3858 65.7575 67.0717 67.0716C65.7576 68.3856 64.197 69.4273 62.4794 70.1368C60.7618 70.8463 58.9209 71.2096 57.0626 71.2059V71.164Z" fill="white"/>
<path d="M58.6403 55.9176H55.443C54.9909 55.8778 54.5701 55.6701 54.2636 55.3354C53.9571 55.0007 53.787 54.5634 53.787 54.1095C53.787 53.6556 53.9571 53.2183 54.2636 52.8836C54.5701 52.5489 54.9909 52.3412 55.443 52.3014H60.7207C61.0243 52.3014 61.3155 52.1808 61.5302 51.9661C61.7449 51.7514 61.8655 51.4602 61.8655 51.1565C61.8655 50.8529 61.7449 50.5617 61.5302 50.347C61.3155 50.1323 61.0243 50.0117 60.7207 50.0117H60.1063V48.2106C60.1241 48.0506 60.1079 47.8886 60.0588 47.7353C60.0097 47.5819 59.9288 47.4407 59.8214 47.3207C59.7141 47.2008 59.5826 47.1048 59.4356 47.0391C59.2886 46.9734 59.1294 46.9395 58.9684 46.9395C58.8074 46.9395 58.6482 46.9734 58.5013 47.0391C58.3543 47.1048 58.2228 47.2008 58.1154 47.3207C58.008 47.4407 57.9272 47.5819 57.8781 47.7353C57.829 47.8886 57.8128 48.0506 57.8305 48.2106V50.0117H56.3087V48.2106C56.3087 47.9069 56.1881 47.6157 55.9734 47.401C55.7586 47.1863 55.4674 47.0657 55.1638 47.0657C54.8602 47.0657 54.569 47.1863 54.3542 47.401C54.1395 47.6157 54.0189 47.9069 54.0189 48.2106V50.263C53.1185 50.594 52.3631 51.2309 51.8847 52.0624C51.4063 52.8939 51.2354 53.8671 51.4017 54.8119C51.568 55.7566 52.0611 56.6129 52.7947 57.231C53.5283 57.8491 54.4558 58.1897 55.4151 58.1934H58.6403C58.8911 58.1713 59.1438 58.2017 59.3822 58.2825C59.6206 58.3634 59.8396 58.4929 60.0253 58.663C60.2109 58.833 60.3592 59.0398 60.4606 59.2702C60.562 59.5007 60.6144 59.7497 60.6144 60.0014C60.6144 60.2532 60.562 60.5022 60.4606 60.7326C60.3592 60.9631 60.2109 61.1699 60.0253 61.3399C59.8396 61.51 59.6206 61.6395 59.3822 61.7204C59.1438 61.8012 58.8911 61.8316 58.6403 61.8095H53.4046C53.101 61.8095 52.8097 61.9301 52.595 62.1448C52.3803 62.3596 52.2597 62.6508 52.2597 62.9544C52.2597 63.258 52.3803 63.5492 52.595 63.7639C52.8097 63.9787 53.101 64.0993 53.4046 64.0993H54.0189V65.9143C54.0189 66.218 54.1395 66.5092 54.3542 66.7239C54.569 66.9386 54.8602 67.0592 55.1638 67.0592C55.4674 67.0592 55.7586 66.9386 55.9734 66.7239C56.1881 66.5092 56.3087 66.218 56.3087 65.9143V64.0993H57.8305V65.9143C57.8128 66.0743 57.829 66.2363 57.8781 66.3896C57.9272 66.543 58.008 66.6842 58.1154 66.8042C58.2228 66.9241 58.3543 67.0201 58.5013 67.0858C58.6482 67.1515 58.8074 67.1854 58.9684 67.1854C59.1294 67.1854 59.2886 67.1515 59.4356 67.0858C59.5826 67.0201 59.7141 66.9241 59.8214 66.8042C59.9288 66.6842 60.0097 66.543 60.0588 66.3896C60.1079 66.2363 60.1241 66.0743 60.1063 65.9143V63.8619C61.0007 63.524 61.7491 62.8845 62.2223 62.0538C62.6955 61.223 62.8639 60.2531 62.6984 59.3115C62.5329 58.3699 62.0439 57.5155 61.3158 56.8959C60.5877 56.2763 59.6661 55.9303 58.7101 55.9176H58.6403Z" fill="white"/>
</svg>
