<svg width="81" height="68" viewBox="0 0 81 68" fill="none" xmlns="http://www.w3.org/2000/svg">
<path d="M70.3556 12.4844C70.1252 12.1212 69.7228 11.8985 69.2892 11.8985H50.0822V1.2695C50.0822 0.570281 49.5158 0 48.8166 0H1.26563C0.92969 0 0.60547 0.13672 0.36719 0.37109C0.13281 0.60937 0 0.933591 0 1.26953V57.7575C0.003906 60.0387 1.8516 61.8864 4.1367 61.8903H12.5156C14.1211 65.32 17.5664 67.5114 21.3515 67.5114C25.1406 67.5114 28.5859 65.32 30.1913 61.8903H54.9723C56.5778 65.32 60.0231 67.5114 63.8121 67.5114C67.5973 67.5114 71.0426 65.32 72.648 61.8903H75.9332C78.2144 61.8864 80.066 60.0387 80.0699 57.7575V28.0775C80.0699 27.8353 79.9996 27.5971 79.8707 27.3939L70.3556 12.4844ZM63.8126 47.9964C60.0235 48.0003 56.5821 50.1917 54.9728 53.6175H50.0822V34.0745H77.5392V47.6765L74.879 47.6726C74.1798 47.6726 73.6134 48.2429 73.6134 48.9421C73.6134 49.6413 74.1798 50.2077 74.879 50.2077H77.5392V53.6218H72.6486C71.0431 50.1921 67.5977 48.0003 63.8126 47.9964ZM30.1876 53.6175C28.586 50.1878 25.1407 47.9964 21.3517 47.9964C17.5626 47.9964 14.1173 50.1878 12.5158 53.6175H2.53533V44.2581H47.5553V53.6214L30.1876 53.6175ZM54.0236 31.5435H50.0822V27.5279H54.0236V31.5435ZM54.0236 24.9966L50.0822 24.9927V20.9771H54.0236V24.9966ZM77.5396 28.4497V31.5513L56.5556 31.5474V14.4304H68.5946L77.5396 28.4497ZM54.0236 14.4297V18.4453H50.0822V14.4297H54.0236ZM2.53563 2.53474H47.5556V41.7227H2.53563V2.53474ZM4.13723 59.3587C3.25442 59.3548 2.53953 58.64 2.53563 57.7571V56.1555H11.7348C11.5551 57.218 11.5551 58.3039 11.7348 59.3625L4.13723 59.3587ZM21.3523 64.9798C18.4304 64.9798 15.7937 63.222 14.6726 60.5189C13.5554 57.8158 14.1726 54.7064 16.2429 52.64C18.3093 50.5736 21.4187 49.9564 24.1218 51.0775C26.821 52.1947 28.5827 54.8314 28.5788 57.7572C28.5749 61.7455 25.3406 64.9759 21.3523 64.9798ZM30.9773 59.3587C31.157 58.2962 31.157 57.2103 30.9773 56.1517H54.1843C54.0085 57.2103 54.0085 58.2962 54.1843 59.3587H30.9773ZM63.8133 64.9798C60.8875 64.9837 58.2508 63.222 57.1297 60.5228C56.0125 57.8197 56.6297 54.7103 58.6961 52.6439C60.7664 50.5736 63.8758 49.9564 66.575 51.0775C69.2781 52.1947 71.0359 54.8314 71.0359 57.7572C71.0281 61.7455 67.7977 64.9759 63.8133 64.9798ZM77.5403 57.7571C77.5364 58.6399 76.8255 59.3548 75.9426 59.3587H73.4348C73.6145 58.2962 73.6145 57.2103 73.4348 56.1517H77.5364L77.5403 57.7571ZM60.4853 38.5341C60.4853 39.2334 59.9189 39.7997 59.2197 39.7997H55.29C54.5908 39.7997 54.0244 39.2333 54.0244 38.5341C54.0244 37.8349 54.5908 37.2685 55.29 37.2685H59.2197C59.9189 37.2685 60.4853 37.835 60.4853 38.5341ZM63.8134 53.6162C62.1415 53.6162 60.6337 54.624 59.9931 56.1709C59.3525 57.7139 59.7041 59.4912 60.8877 60.6748C62.0674 61.8584 63.8447 62.2139 65.3916 61.5733C66.9385 60.9366 67.9463 59.4288 67.9463 57.7569C67.9463 55.4717 66.0946 53.6201 63.8134 53.6162ZM63.8134 59.3584V59.3545C63.165 59.3545 62.5829 58.9678 62.3329 58.3662C62.0868 57.7686 62.2235 57.0811 62.6806 56.6241C63.1376 56.167 63.8251 56.0303 64.4228 56.2764C65.0204 56.5264 65.4111 57.1084 65.4111 57.7569C65.4111 58.6397 64.6963 59.3545 63.8134 59.3584ZM21.3524 53.6162C19.6805 53.6201 18.1727 54.624 17.5321 56.1709C16.8915 57.7139 17.247 59.4912 18.4267 60.6748C19.6103 61.8584 21.3876 62.2139 22.9345 61.5733C24.4775 60.9366 25.4853 59.4288 25.4892 57.7569C25.4892 55.4717 23.6375 53.6201 21.3524 53.6162ZM21.3524 59.3584V59.3545C20.704 59.3545 20.1219 58.9678 19.8719 58.3662C19.6258 57.7686 19.7625 57.0811 20.2196 56.6241C20.6766 56.167 21.368 56.0303 21.9657 56.2764C22.5634 56.5264 22.9501 57.1084 22.9501 57.7569C22.954 58.1788 22.7821 58.5889 22.4852 58.8897C22.1844 59.1866 21.7782 59.3584 21.3524 59.3584ZM25.0399 6.68644C20.9461 6.68644 17.0165 8.31144 14.1219 11.2098C11.2274 14.1043 9.59853 18.034 9.59853 22.1278C9.59853 26.2255 11.2274 30.1512 14.1219 33.0458C17.0164 35.9442 20.9461 37.5692 25.0399 37.5692C29.1376 37.5692 33.0633 35.9442 35.9619 33.0458C38.8564 30.1513 40.4814 26.2216 40.4814 22.1278C40.4775 18.034 38.8486 14.1083 35.9541 11.2138C33.0596 8.31934 29.1336 6.69034 25.0399 6.68644ZM12.1379 22.1274C12.134 17.268 14.8567 12.8227 19.1848 10.6194C23.5129 8.41634 28.7121 8.83424 32.6378 11.6936L29.2198 15.5334C28.9073 15.1311 28.5323 14.7756 28.1104 14.4865C27.5675 14.1233 26.9659 13.8655 26.3252 13.7287V12.592C26.3252 11.8928 25.7588 11.3264 25.0596 11.3264C24.3604 11.3264 23.794 11.8928 23.794 12.592V13.7561C23.3214 13.8694 22.8643 14.0413 22.4346 14.2679C20.8838 15.0374 19.8955 16.6117 19.876 18.3421C19.876 20.6623 21.3877 21.8265 22.9385 22.5921L15.5635 30.8772C13.3565 28.4983 12.134 25.3735 12.1379 22.1274ZM23.3959 27.6665C23.0639 27.4361 22.7944 27.1275 22.6069 26.7681L25.3881 23.6431C26.974 24.3267 27.6811 24.8345 27.6811 25.9126H27.6772C27.6537 26.7095 27.185 27.4204 26.4663 27.7564C25.5014 28.2798 24.3295 28.2447 23.3959 27.6665ZM24.6967 20.6079C23.1108 19.9243 22.4037 19.4165 22.4037 18.3384C22.4272 17.5455 22.8998 16.8345 23.6185 16.4986C24.5834 15.9752 25.7513 16.0065 26.6849 16.5846C27.017 16.815 27.2904 17.1236 27.4779 17.483L24.6967 20.6079ZM25.0405 35.0378C22.31 35.0378 19.6538 34.1707 17.4507 32.5574L20.8687 28.7175C21.1812 29.1199 21.5562 29.4754 21.9781 29.7644C22.525 30.1316 23.1383 30.3894 23.7828 30.5301V31.6629V31.659C23.7828 32.3582 24.3531 32.9246 25.0523 32.9246C25.7515 32.9246 26.3179 32.3582 26.3179 31.659V30.4949C26.7827 30.3855 27.228 30.2136 27.6499 29.991C29.2046 29.2214 30.1929 27.6472 30.2124 25.9129C30.2124 23.5926 28.7007 22.4285 27.1499 21.6629L34.5249 13.3777C38.0054 17.1433 38.9272 22.6121 36.8687 27.3117C34.814 32.007 30.1693 35.0417 25.0405 35.0378Z" fill="white"/>
</svg>
