<svg width="335" height="234" viewBox="0 0 335 234" fill="none" xmlns="http://www.w3.org/2000/svg">
<g clip-path="url(#clip0_15_1044)">
<path d="M263.293 21.0551C262.447 15.0562 261.386 8.61536 257.008 4.28481C255.619 2.91074 253.956 1.82276 252.12 1.08649C250.285 0.350211 248.313 -0.0191204 246.326 0.000762126C244.338 0.0206446 242.376 0.429334 240.556 1.20218C238.736 1.97502 237.097 3.09602 235.738 4.4976C232.551 7.78332 231.144 12.397 231.015 16.8988C230.886 21.4007 231.924 25.8526 233.075 30.2167C239.165 30.3343 245.21 29.1843 250.799 26.8447C252.169 26.1985 253.59 25.6592 255.049 25.2322C256.526 24.8689 257.578 25.783 258.952 26.4204L259.706 25.025C260.323 26.1352 262.235 25.8061 262.928 24.7386C263.621 23.6711 263.469 22.304 263.293 21.0551Z" fill="#2F2E41"/>
<path d="M237.857 46.3846L239.62 37.6784L226.399 32.1461L202.761 21.201C202.597 20.1854 202.117 19.2421 201.385 18.4958C200.654 17.7495 199.705 17.2355 198.665 17.0217C197.624 16.8079 196.541 16.9043 195.559 17.2984C194.577 17.6924 193.741 18.3654 193.163 19.2283C192.585 20.0913 192.292 21.1035 192.322 22.1311C192.352 23.1587 192.704 24.1532 193.332 24.9832C193.959 25.8131 194.833 26.4393 195.837 26.779C196.841 27.1187 197.927 27.1558 198.954 26.8854L221.46 40.3096L237.857 46.3846Z" fill="#FFB8B8"/>
<path d="M228.981 44.9116L238.557 35.45L238.747 35.5056C238.866 35.5405 250.764 39.0462 258.349 42.6088C259.206 42.9807 259.969 43.5289 260.585 44.2152C261.2 44.9015 261.654 45.7092 261.913 46.5822C262.291 47.8045 262.291 49.1068 261.913 50.3291C261.535 51.5514 260.797 52.6405 259.788 53.4628C258.751 54.3602 257.468 54.9499 256.093 55.1614C254.718 55.373 253.31 55.1974 252.035 54.6557L228.981 44.9116Z" fill="#0A58C9"/>
<path d="M228.952 86.5093L255.88 93.464L261.317 68.8775L236.601 61.4834L228.952 86.5093Z" fill="#FFB8B8"/>
<path d="M258.894 79.8359L232.588 73.989L227.551 62.1891C227.141 60.5047 227.241 58.742 227.838 57.1108C228.435 55.4796 229.505 54.0486 230.919 52.9883L240.53 45.1458L245.683 38.7845L245.122 35.4134C245.021 34.7396 245.168 34.0531 245.535 33.4726C245.903 32.892 246.469 32.4539 247.136 32.2338L254.002 29.8538C254.761 29.5795 255.6 29.5942 256.348 29.8949C257.097 30.1957 257.699 30.7601 258.033 31.4738L258.76 33.1014C258.76 33.1014 261.865 34.5137 263.616 35.3081C264.517 35.704 265.321 36.2792 265.976 36.9963C266.631 37.7134 267.122 38.556 267.416 39.4691C270.096 47.8385 269.373 56.8803 265.396 64.753L258.894 79.8359Z" fill="#0A58C9"/>
<path d="M24.9524 205.096L12.2336 201.807C10.3635 195.372 10.1467 188.594 11.602 182.061C17.1508 192.662 32.0533 194.661 40.8816 202.928C43.6146 205.527 45.7075 208.687 47.0051 212.174C48.3028 215.661 48.772 219.385 48.378 223.071L51.4248 231.603C45.2404 231.366 39.1825 229.837 33.6685 227.12C28.1546 224.403 23.3156 220.562 19.4851 215.864C17.3632 213.207 15.5958 210.303 14.2247 207.22C19.5468 206.466 24.9524 205.096 24.9524 205.096Z" fill="#F2F2F2"/>
<path d="M182.969 234H58.3077C54.9669 233.996 51.7639 232.712 49.4015 230.429C47.0391 228.145 45.7103 225.05 45.7065 221.821V62.2822C45.7103 59.0531 47.0392 55.9574 49.4015 53.6741C51.7639 51.3908 54.9669 50.1064 58.3078 50.1028H182.969C186.309 50.1064 189.512 51.3908 191.875 53.6741C194.237 55.9574 195.566 59.0531 195.57 62.2822V221.821C195.566 225.05 194.237 228.145 191.875 230.429C189.512 232.712 186.309 233.996 182.969 234Z" fill="#E6E6E6"/>
<path d="M135.389 224.125H67.0704C64.0284 224.122 61.112 222.952 58.961 220.873C56.81 218.794 55.6 215.975 55.5966 213.035V71.0676C55.6 68.1275 56.81 65.3087 58.961 63.2298C61.112 61.1508 64.0284 59.9813 67.0704 59.978H174.206C177.248 59.9813 180.164 61.1508 182.315 63.2298C184.466 65.3087 185.676 68.1275 185.68 71.0676V175.518C185.664 188.405 180.361 200.76 170.933 209.872C161.505 218.985 148.722 224.11 135.389 224.125Z" fill="white"/>
<path d="M163.518 87.2332H77.7579C77.3906 87.2337 77.0268 87.1642 76.6873 87.0287C76.3478 86.8933 76.0392 86.6945 75.7792 86.4438C75.5191 86.1931 75.3127 85.8954 75.1718 85.5676C75.0308 85.2397 74.958 84.8883 74.9575 84.5333C74.9571 84.1783 75.0289 83.8267 75.1691 83.4986C75.3092 83.1704 75.5148 82.8722 75.7742 82.6208C76.0336 82.3695 76.3417 82.17 76.6809 82.0337C77.02 81.8975 77.3836 81.8271 77.7509 81.8267H163.518C164.26 81.8258 164.972 82.1097 165.497 82.616C166.022 83.1224 166.318 83.8096 166.319 84.5266C166.32 85.2435 166.026 85.9315 165.502 86.4391C164.978 86.9466 164.267 87.2323 163.525 87.2332H163.518Z" fill="#0A58C9"/>
<path d="M163.518 97.9151H77.7579C77.0161 97.9151 76.3046 97.6303 75.7801 97.1233C75.2555 96.6163 74.9608 95.9287 74.9608 95.2117C74.9608 94.4947 75.2555 93.8071 75.7801 93.3001C76.3046 92.7931 77.0161 92.5083 77.7579 92.5083H163.518C164.26 92.5083 164.972 92.7931 165.496 93.3001C166.021 93.8071 166.315 94.4947 166.315 95.2117C166.315 95.9287 166.021 96.6163 165.496 97.1233C164.972 97.6303 164.26 97.9151 163.518 97.9151Z" fill="#0A58C9"/>
<path d="M114.933 108.597H77.7579C77.0161 108.597 76.3046 108.312 75.7801 107.805C75.2555 107.298 74.9608 106.611 74.9608 105.894C74.9608 105.177 75.2555 104.489 75.7801 103.982C76.3046 103.475 77.0161 103.19 77.7579 103.19H114.933C115.675 103.19 116.386 103.475 116.911 103.982C117.435 104.489 117.73 105.177 117.73 105.894C117.73 106.611 117.435 107.298 116.911 107.805C116.386 108.312 115.675 108.597 114.933 108.597Z" fill="#0A58C9"/>
<path d="M163.518 130.969H77.7579C77.0161 130.97 76.3044 130.686 75.7792 130.18C75.254 129.674 74.9584 128.986 74.9575 128.269C74.9566 127.552 75.2504 126.864 75.7742 126.357C76.2981 125.849 77.0092 125.564 77.7509 125.563H163.518C164.26 125.562 164.972 125.846 165.497 126.352C166.022 126.858 166.318 127.546 166.319 128.263C166.32 128.98 166.026 129.668 165.502 130.175C164.978 130.683 164.267 130.968 163.525 130.969H163.518Z" fill="#E4E4E4"/>
<path d="M163.518 141.651H77.7579C77.0161 141.651 76.3046 141.367 75.7801 140.86C75.2555 140.353 74.9608 139.665 74.9608 138.948C74.9608 138.231 75.2555 137.543 75.7801 137.036C76.3046 136.529 77.0161 136.245 77.7579 136.245H163.518C164.26 136.245 164.972 136.529 165.496 137.036C166.021 137.543 166.315 138.231 166.315 138.948C166.315 139.665 166.021 140.353 165.496 140.86C164.972 141.367 164.26 141.651 163.518 141.651Z" fill="#E4E4E4"/>
<path d="M114.933 152.333H77.7579C77.0161 152.333 76.3046 152.049 75.7801 151.542C75.2555 151.035 74.9608 150.347 74.9608 149.63C74.9608 148.913 75.2555 148.225 75.7801 147.718C76.3046 147.211 77.0161 146.927 77.7579 146.927H114.933C115.675 146.927 116.386 147.211 116.911 147.718C117.435 148.225 117.73 148.913 117.73 149.63C117.73 150.347 117.435 151.035 116.911 151.542C116.386 152.049 115.675 152.333 114.933 152.333Z" fill="#E4E4E4"/>
<path d="M163.518 174.706H77.7579C77.0161 174.707 76.3044 174.423 75.7792 173.916C75.254 173.41 74.9584 172.723 74.9575 172.006C74.9566 171.289 75.2504 170.601 75.7742 170.093C76.2981 169.586 77.0092 169.3 77.7509 169.299H163.518C164.26 169.298 164.972 169.582 165.497 170.088C166.022 170.595 166.318 171.282 166.319 171.999C166.32 172.716 166.026 173.404 165.502 173.911C164.978 174.419 164.267 174.705 163.525 174.706H163.518Z" fill="#E4E4E4"/>
<path d="M163.518 185.388H77.7579C77.0161 185.388 76.3046 185.103 75.7801 184.596C75.2555 184.089 74.9608 183.401 74.9608 182.684C74.9608 181.967 75.2555 181.279 75.7801 180.773C76.3046 180.266 77.0161 179.981 77.7579 179.981H163.518C164.26 179.981 164.972 180.266 165.496 180.773C166.021 181.279 166.315 181.967 166.315 182.684C166.315 183.401 166.021 184.089 165.496 184.596C164.972 185.103 164.26 185.388 163.518 185.388Z" fill="#E4E4E4"/>
<path d="M114.933 196.07H77.7579C77.017 196.068 76.3069 195.783 75.7835 195.276C75.2601 194.769 74.9662 194.082 74.9662 193.366C74.9662 192.65 75.2601 191.963 75.7835 191.456C76.3069 190.95 77.017 190.664 77.7579 190.663H114.933C115.674 190.664 116.384 190.95 116.907 191.456C117.431 191.963 117.725 192.65 117.725 193.366C117.725 194.082 117.431 194.769 116.907 195.276C116.384 195.783 115.674 196.068 114.933 196.07Z" fill="#E4E4E4"/>
<path d="M189.414 88.3496C209.496 88.3496 225.775 72.6151 225.775 53.2057C225.775 33.7962 209.496 18.0618 189.414 18.0618C169.332 18.0618 153.053 33.7962 153.053 53.2057C153.053 72.6151 169.332 88.3496 189.414 88.3496Z" fill="#0A58C9"/>
<path opacity="0.16" d="M189.414 83.4809C180.215 83.4797 171.358 80.108 164.629 74.0454C157.9 67.9828 153.799 59.6801 153.152 50.8108C153.093 51.629 153.053 52.452 153.053 53.2847C153.056 62.6031 156.889 71.5387 163.707 78.1266C170.526 84.7145 179.773 88.4154 189.414 88.4154C199.055 88.4154 208.302 84.7145 215.12 78.1266C221.939 71.5387 225.772 62.6031 225.775 53.2847C225.775 52.452 225.735 51.629 225.676 50.8108C225.029 59.6801 220.928 67.9828 214.199 74.0454C207.47 80.108 198.613 83.4797 189.414 83.4809Z" fill="#231F20"/>
<path d="M189.414 70.3797C188.207 70.3784 187.049 69.9142 186.196 69.0891C185.342 68.264 184.862 67.1453 184.86 65.9784V40.5121C184.86 39.9337 184.977 39.3609 185.205 38.8264C185.434 38.2919 185.769 37.8061 186.192 37.3969C186.615 36.9877 187.117 36.6631 187.67 36.4417C188.223 36.2202 188.815 36.1062 189.414 36.1062C190.012 36.1062 190.605 36.2202 191.158 36.4417C191.71 36.6631 192.213 36.9877 192.636 37.3969C193.058 37.8061 193.394 38.2919 193.622 38.8264C193.851 39.3609 193.968 39.9337 193.968 40.5121V65.9784C193.966 67.1453 193.486 68.264 192.632 69.0891C191.779 69.9142 190.621 70.3784 189.414 70.3797Z" fill="white"/>
<path d="M171.686 53.2453C171.687 52.0784 172.168 50.9597 173.021 50.1346C173.875 49.3095 175.032 48.8453 176.24 48.844H202.588C203.187 48.8434 203.779 48.9568 204.332 49.1777C204.885 49.3986 205.388 49.7227 205.811 50.1314C206.235 50.5402 206.57 51.0256 206.8 51.5598C207.029 52.0941 207.147 52.6668 207.147 53.2452C207.147 53.8236 207.029 54.3962 206.8 54.9305C206.57 55.4648 206.235 55.9502 205.811 56.3589C205.388 56.7677 204.885 57.0918 204.332 57.3127C203.779 57.5336 203.187 57.647 202.588 57.6464H176.24C175.032 57.6451 173.875 57.181 173.021 56.3559C172.168 55.5308 171.687 54.4122 171.686 53.2453Z" fill="white"/>
<path d="M244.074 60.7129L236.337 55.9404L226.171 65.8081L206.981 83.0631C205.943 82.8396 204.859 82.926 203.873 83.3109C202.887 83.6957 202.045 84.3609 201.458 85.2184C200.871 86.0759 200.568 87.0853 200.588 88.1132C200.608 89.141 200.95 90.1388 201.569 90.9745C202.188 91.8103 203.056 92.4446 204.056 92.7936C205.057 93.1427 206.143 93.1899 207.172 92.9291C208.201 92.6683 209.123 92.1118 209.818 91.3331C210.512 90.5545 210.946 89.5904 211.061 88.5684L232.224 73.2381L244.074 60.7129Z" fill="#FFB8B8"/>
<path d="M239.408 68.1569L233.802 56.0809L233.925 55.9309C234.002 55.8367 241.732 46.4176 247.938 40.8991C248.61 40.2642 249.417 39.7785 250.303 39.476C251.189 39.1735 252.133 39.0614 253.068 39.1476C254.383 39.2558 255.637 39.7326 256.676 40.5194C257.714 41.3063 258.493 42.369 258.916 43.5773C259.4 44.8385 259.499 46.2079 259.199 47.5218C258.9 48.8357 258.215 50.0385 257.227 50.9863L239.408 68.1569Z" fill="#0A58C9"/>
<path d="M244.472 28.4643C251.19 28.4643 256.636 23.2005 256.636 16.7072C256.636 10.214 251.19 4.9502 244.472 4.9502C237.754 4.9502 232.307 10.214 232.307 16.7072C232.307 23.2005 237.754 28.4643 244.472 28.4643Z" fill="#FFB8B8"/>
<path d="M225.573 225.579H220.544L218.151 206.832H225.573V225.579Z" fill="#FFB8B8"/>
<path d="M228.227 234H224.621L223.977 230.709L222.328 234H212.763C212.305 234 211.858 233.858 211.489 233.596C211.12 233.333 210.847 232.963 210.711 232.54C210.574 232.117 210.581 231.663 210.731 231.244C210.88 230.825 211.164 230.464 211.542 230.212L219.18 225.113V221.786L227.214 222.25L228.227 234Z" fill="#2F2E41"/>
<path d="M288.599 221.45L283.927 223.247L274.53 206.685L281.426 204.032L288.599 221.45Z" fill="#FFB8B8"/>
<path d="M294.288 228.325L290.937 229.614L289.08 226.787L288.807 230.433L279.921 233.852C279.495 234.016 279.026 234.044 278.582 233.932C278.139 233.82 277.744 233.574 277.455 233.23C277.166 232.886 276.999 232.461 276.978 232.019C276.956 231.576 277.082 231.138 277.336 230.77L282.482 223.302L281.209 220.211L288.85 217.77L294.288 228.325Z" fill="#2F2E41"/>
<path d="M227.513 216.967H217.111L219.985 169.733L217.884 137.717L217.888 137.691L225.726 91.7976C226.343 88.1787 228.009 84.803 230.531 82.0629L230.627 81.959L256.858 88.2206L259.495 94.0329C268.501 99.2098 271.345 128.402 271.462 129.646L275.274 166.037L284.601 210.639L278.033 214.057L277.923 213.845L257.189 173.996L244.095 131.972L235.709 169.794L227.513 216.967Z" fill="#2F2E41"/>
<path d="M259.537 17.2605C259.106 14.5277 258.657 11.7719 257.645 9.19872C256.634 6.6255 255.004 4.21528 252.666 2.75759C248.964 0.449684 244.171 0.894798 240.02 2.22236C236.81 3.24905 233.676 4.80952 231.413 7.31823C229.149 9.82697 227.878 13.4067 228.72 16.6869C233.147 15.6759 237.575 14.6648 242.002 13.6537L241.518 13.9847C242.972 14.6854 244.241 15.6969 245.23 16.9426C246.219 18.1883 246.901 19.6353 247.225 21.1739C247.542 22.7312 247.496 24.337 247.092 25.8752C246.688 27.4135 245.935 28.8456 244.888 30.0681C247.907 29.0327 250.927 27.9974 253.946 26.9621C255.81 26.3231 257.805 25.5868 258.91 23.9477C260.192 22.0473 259.894 19.5284 259.537 17.2605Z" fill="#2F2E41"/>
<path d="M0.637722 233.887H334.362C334.531 233.887 334.694 233.822 334.813 233.706C334.933 233.591 335 233.434 335 233.27C335 233.107 334.933 232.95 334.813 232.835C334.694 232.719 334.531 232.654 334.362 232.654H0.637722C0.468585 232.654 0.306384 232.719 0.186786 232.835C0.0671877 232.95 0 233.107 0 233.27C0 233.434 0.0671877 233.591 0.186786 233.706C0.306384 233.822 0.468585 233.887 0.637722 233.887Z" fill="#CCCCCC"/>
</g>
<defs>
<clipPath id="clip0_15_1044">
<rect width="335" height="234" fill="white"/>
</clipPath>
</defs>
</svg>
