<svg width="484" height="286" viewBox="0 0 484 286" fill="none" xmlns="http://www.w3.org/2000/svg">
<path d="M254.728 284.483H242.858V189.26H252.51C252.978 189.26 253.426 189.453 253.758 189.796C254.089 190.14 254.276 190.607 254.279 191.094L254.728 284.483Z" fill="#CCCCCC"/>
<path d="M243.967 284.988H116.507V217.172H243.967V284.988Z" fill="white"/>
<path d="M193.729 284.735H116.748V217.424H243.725V232.621C243.71 246.438 238.437 259.684 229.064 269.454C219.691 279.224 206.984 284.719 193.729 284.735Z" fill="#F2F2F2"/>
<path d="M252.794 191.964C252.73 192.091 252.681 192.224 252.647 192.363L248.251 210.023L243.484 219.434H116.993V217.09L124.195 210.022L132.597 193.272C132.968 192.532 133.455 191.863 134.038 191.291C135.368 189.986 137.126 189.26 138.952 189.26H251.234C251.539 189.26 251.839 189.342 252.104 189.498C252.37 189.654 252.592 189.879 252.749 190.152C252.907 190.424 252.994 190.734 253.003 191.051C253.011 191.369 252.941 191.683 252.798 191.964H252.794Z" fill="#F2F2F2"/>
<path d="M243.967 284.988H116.507V217.172H243.967V284.988ZM117.477 283.979H243V218.181H117.477V283.979Z" fill="#E6E6E6"/>
<path d="M250.599 201L248.251 210.024H124.193L128.201 202.513L250.599 201Z" fill="#CCCCCC"/>
<path d="M141.525 252.708H121.207V253.88H141.525V252.708Z" fill="white"/>
<path d="M141.525 256.81H121.207V257.982H141.525V256.81Z" fill="white"/>
<path d="M141.525 260.913H121.207V262.085H141.525V260.913Z" fill="white"/>
<path d="M129.077 239.652C133.114 239.652 136.386 236.241 136.386 232.033C136.386 227.825 133.114 224.415 129.077 224.415C125.041 224.415 121.769 227.825 121.769 232.033C121.769 236.241 125.041 239.652 129.077 239.652Z" fill="white"/>
<path d="M209.18 204.905H202.97V155.105H208.018C208.263 155.105 208.497 155.206 208.671 155.386C208.844 155.565 208.942 155.809 208.943 156.064L209.18 204.905Z" fill="#CCCCCC"/>
<path d="M203.554 205.168H136.897V169.707H203.554V205.168Z" fill="white"/>
<path d="M177.28 205.036H137.023V169.836H203.426V177.78C203.418 185.006 200.661 191.933 195.759 197.043C190.858 202.152 184.212 205.026 177.28 205.034V205.036Z" fill="#F2F2F2"/>
<path d="M208.169 156.522C208.135 156.589 208.109 156.66 208.091 156.733L205.793 165.968L203.3 170.893H137.152V169.668L140.918 165.972L145.312 157.212C145.506 156.826 145.76 156.475 146.065 156.176C146.761 155.494 147.68 155.114 148.635 155.114H207.353C207.512 155.114 207.669 155.157 207.808 155.238C207.947 155.32 208.063 155.438 208.145 155.58C208.228 155.723 208.273 155.885 208.278 156.051C208.282 156.217 208.245 156.381 208.171 156.528L208.169 156.522Z" fill="#F2F2F2"/>
<path d="M203.554 205.168H136.897V169.707H203.554V205.168ZM137.406 204.64H203.05V170.233H137.403L137.406 204.64Z" fill="#E6E6E6"/>
<path d="M207.021 161.246L205.794 165.965H140.916L143.013 162.037L207.021 161.246Z" fill="#CCCCCC"/>
<path d="M149.981 188.287H139.355V188.9H149.981V188.287Z" fill="white"/>
<path d="M149.981 190.432H139.355V191.045H149.981V190.432Z" fill="white"/>
<path d="M149.981 192.578H139.355V193.19H149.981V192.578Z" fill="white"/>
<path d="M143.471 181.459C145.581 181.459 147.292 179.675 147.292 177.475C147.292 175.275 145.581 173.491 143.471 173.491C141.36 173.491 139.649 175.275 139.649 177.475C139.649 179.675 141.36 181.459 143.471 181.459Z" fill="white"/>
<path d="M132.211 169.299C130.005 169.244 127.809 169.642 125.75 170.472C123.691 171.301 121.809 172.545 120.211 174.133C118.613 175.721 117.331 177.621 116.438 179.725C115.545 181.829 115.058 184.096 115.006 186.397C114.783 196.07 121.39 216.42 130.946 224.215C133.7 207.337 147.431 196.212 148.611 187.238C149.871 177.648 141.494 169.531 132.211 169.299Z" fill="#D1D3D4"/>
<path d="M130.485 190.895C133.513 190.895 135.967 188.337 135.967 185.181C135.967 182.025 133.513 179.467 130.485 179.467C127.458 179.467 125.004 182.025 125.004 185.181C125.004 188.337 127.458 190.895 130.485 190.895Z" fill="white"/>
<path d="M128.419 232.702C130.401 232.702 132.009 231.026 132.009 228.959C132.009 226.892 130.401 225.217 128.419 225.217C126.436 225.217 124.828 226.892 124.828 228.959C124.828 231.026 126.436 232.702 128.419 232.702Z" fill="#D1D3D4"/>
<path opacity="0.2" d="M134.656 180.687C135.325 181.001 135.927 181.451 136.425 182.012C136.924 182.573 137.31 183.232 137.56 183.951C137.81 184.67 137.919 185.434 137.88 186.197C137.842 186.961 137.657 187.709 137.336 188.396C137.015 189.084 136.565 189.697 136.013 190.2C135.46 190.704 134.817 191.086 134.12 191.325C133.423 191.564 132.687 191.655 131.956 191.592C131.225 191.529 130.514 191.314 129.864 190.959C131.154 191.135 132.462 190.826 133.554 190.089C134.645 189.351 135.45 188.233 135.823 186.934C136.197 185.635 136.115 184.239 135.592 182.998C135.069 181.756 134.139 180.749 132.969 180.156C133.555 180.237 134.125 180.416 134.656 180.687Z" fill="#231F20"/>
<path opacity="0.2" d="M148.633 187.251C147.453 196.223 133.723 207.351 130.969 224.229C130.069 223.488 129.224 222.679 128.439 221.808C131.791 205.872 144.646 195.19 145.786 186.523C146.806 178.765 141.512 171.97 134.537 169.537C142.847 170.917 149.788 178.466 148.633 187.251Z" fill="#231F20"/>
<path d="M403.683 283.854H273.573C273.344 283.854 273.158 283.465 273.158 282.985C273.158 282.504 273.344 282.115 273.573 282.115H403.683C403.912 282.115 404.097 282.504 404.097 282.985C404.097 283.465 403.913 283.854 403.683 283.854Z" fill="#E6E6E6"/>
<path d="M376.226 75.4C375.187 76.6861 373.868 77.6943 372.379 78.3403L368.112 83.3491L356.025 98.5629L347.858 103.712L344.065 96.9074L361.963 78.7329L366.951 73.4433C367.351 71.8131 368.12 70.3066 369.193 69.05C371.835 65.8691 375.552 64.7103 377.495 66.4636C379.439 68.217 378.87 72.2183 376.226 75.4Z" fill="#ED9DA0"/>
<path d="M303.172 90.5138L311.032 76.8781L344.473 91.8555L362.752 76.2878L370.262 83.0318C370.521 83.2647 351.83 110.25 350.503 110.219C349.176 110.187 303.172 90.5138 303.172 90.5138Z" fill="#0A58C9"/>
<path d="M317.524 66.8562H305.902V90.3738H317.524V66.8562Z" fill="#ED9DA0"/>
<path d="M336.712 132.388L308.681 130.25C308.681 130.25 297.058 158.042 305.946 175.86L312.1 212.918L309.666 273.912H322.397L342.181 175.86L336.712 132.388Z" fill="#090814"/>
<path d="M331.243 163.517L342.177 173.442L336.71 270.643H324.406L331.243 163.517Z" fill="#090814"/>
<path d="M311.556 71.4795C319.581 71.4795 326.086 64.6983 326.086 56.3333C326.086 47.9682 319.581 41.187 311.556 41.187C303.531 41.187 297.026 47.9682 297.026 56.3333C297.026 64.6983 303.531 71.4795 311.556 71.4795Z" fill="#ED9DA0"/>
<path d="M309.815 259.437L324.828 261.913L327.649 273.136C327.649 273.136 339.836 277.917 333.964 283.111C328.092 288.306 306.397 285.62 304.683 281.894C302.969 278.168 309.815 259.437 309.815 259.437Z" fill="#090814"/>
<path d="M322.122 259.436L337.132 261.908L339.954 273.131C339.954 273.131 352.141 277.912 346.269 283.107C340.397 288.301 318.702 285.616 316.988 281.89C315.273 278.163 322.124 259.436 322.124 259.436L322.122 259.436Z" fill="#090814"/>
<path d="M363.588 129.978C361.975 129.996 360.381 129.612 358.939 128.857L352.513 128.755L333.567 129.138L324.495 126.049L326.966 118.615L351.858 120.89L358.958 121.377C360.405 120.629 362.002 120.253 363.616 120.281C367.653 120.29 370.919 122.471 370.914 125.149C370.908 127.827 367.629 129.99 363.59 129.978L363.588 129.978Z" fill="#ED9DA0"/>
<path d="M318.595 75.7327H304.211L299.452 90.6988L308.682 130.251L336.712 132.389L335.003 116.355C336.621 113.614 337.421 110.434 337.302 107.218C337.183 104.002 336.15 100.895 334.334 98.2927L318.595 75.7327Z" fill="#0A58C9"/>
<path d="M304.922 82.1465L319.964 79.4546L330.898 115.64L354.143 119.916V130.25C354.143 130.607 322.33 133.457 321.487 132.388C320.644 131.319 304.919 82.1458 304.919 82.1458L304.922 82.1465Z" fill="#0A58C9"/>
<path d="M318.812 47.5516C320.597 50.57 318.951 54.546 316.752 57.252C314.554 59.958 311.718 62.3327 310.736 65.7275C309.859 68.7712 310.657 72.0535 311.692 75.0452C312.727 78.0369 314.015 81.0173 314.122 84.1919C314.229 87.3665 312.785 90.876 309.915 91.9504C306.968 93.0515 303.485 91.3214 300.647 92.6976C296.951 94.4897 296.113 100.695 292.084 101.338C289.604 101.734 287.306 99.4922 286.613 96.9755C285.919 94.4587 286.417 91.7794 286.918 89.217L291.036 68.1542L294.462 50.6284C295.144 47.1407 295.954 43.4088 298.468 41.0011C301.542 38.0587 306.173 37.9883 310.343 38.1649C314.173 38.3268 318.16 38.6005 321.493 40.5719C324.826 42.5434 327.278 46.734 326.122 50.544C325.54 49.2189 324.515 48.1597 323.239 47.5635C321.963 46.9673 320.523 46.8748 319.186 47.3032" fill="#090814"/>
<path d="M363.068 124.406H369.682V71.324H364.302C364.041 71.324 363.791 71.4315 363.606 71.6231C363.421 71.8146 363.317 72.0746 363.315 72.3463L363.068 124.406Z" fill="#CCCCCC"/>
<path d="M369.064 86.8882H440.112V124.689H369.064V86.8882Z" fill="white"/>
<path d="M369.2 95.4967V87.0276H439.978V124.547H397.068C389.68 124.539 382.596 121.475 377.371 116.029C372.147 110.583 369.208 103.199 369.2 95.4967Z" fill="#F2F2F2"/>
<path d="M364.142 72.8354C364.178 72.906 364.206 72.9806 364.225 73.0578L366.675 82.9018L369.332 88.1477H439.84V86.8412L435.826 82.901L431.143 73.5637C430.936 73.1515 430.665 72.7784 430.34 72.4597C429.598 71.7326 428.619 71.3277 427.601 71.3276H365.016C364.846 71.3278 364.679 71.3736 364.531 71.4608C364.383 71.548 364.259 71.6735 364.172 71.8251C364.084 71.9768 364.035 72.1495 364.031 72.3265C364.026 72.5035 364.065 72.6788 364.144 72.8354H364.142Z" fill="#F2F2F2"/>
<path d="M369.064 86.8882H440.112V124.689H369.064V86.8882ZM439.573 124.127H369.604V87.451H439.573V124.127Z" fill="#E6E6E6"/>
<path d="M365.367 77.8716L366.676 82.9023H435.827L433.593 78.7159L365.367 77.8716Z" fill="#CCCCCC"/>
<path d="M369.064 86.8882H440.112V124.689H369.064V86.8882ZM439.573 124.127H369.604V87.451H439.573V124.127Z" fill="#E6E6E6"/>
<path d="M437.493 106.694H426.167V107.348H437.493V106.694Z" fill="#0A58C9"/>
<path d="M437.493 108.98H426.167V109.634H437.493V108.98Z" fill="#0A58C9"/>
<path d="M437.493 111.267H426.167V111.921H437.493V111.267Z" fill="#0A58C9"/>
<path d="M433.105 99.4156C435.355 99.4156 437.179 97.5143 437.179 95.1688C437.179 92.8233 435.355 90.9219 433.105 90.9219C430.855 90.9219 429.031 92.8233 429.031 95.1688C429.031 97.5143 430.855 99.4156 433.105 99.4156Z" fill="#0A58C9"/>
<path d="M400.241 31.0054C405.03 30.8857 409.668 32.7536 413.135 36.1984C416.602 39.6432 418.615 44.3827 418.73 49.3741C418.969 59.7683 411.869 81.6367 401.6 90.013C398.64 71.8757 383.887 59.9182 382.619 50.2782C381.265 39.9769 390.27 31.2552 400.241 31.0054Z" fill="#D1D3D4"/>
<path d="M402.097 54.209C405.35 54.209 407.987 51.4603 407.987 48.0695C407.987 44.6787 405.35 41.9299 402.097 41.9299C398.844 41.9299 396.207 44.6787 396.207 48.0695C396.207 51.4603 398.844 54.209 402.097 54.209Z" fill="#0A58C9"/>
<path d="M404.318 99.135C406.449 99.135 408.176 97.3344 408.176 95.1133C408.176 92.8921 406.449 91.0916 404.318 91.0916C402.187 91.0916 400.46 92.8921 400.46 95.1133C400.46 97.3344 402.187 99.135 404.318 99.135Z" fill="#0A58C9"/>
<path opacity="0.2" d="M397.614 43.2409C396.21 43.9532 395.134 45.218 394.624 46.757C394.114 48.2961 394.211 49.9833 394.894 51.4476C395.578 52.9119 396.791 54.0333 398.267 54.565C399.744 55.0968 401.362 54.9954 402.767 54.2831C401.38 54.4732 399.974 54.1426 398.8 53.3504C397.625 52.5583 396.76 51.3563 396.358 49.9597C395.956 48.5631 396.045 47.063 396.607 45.728C397.17 44.3931 398.17 43.3104 399.428 42.6738C398.798 42.7596 398.186 42.9511 397.614 43.2409Z" fill="#231F20"/>
<path opacity="0.2" d="M382.595 50.2956C383.863 59.9349 398.617 71.8959 401.576 90.0304C402.543 89.2337 403.452 88.3635 404.295 87.4271C400.693 70.303 386.881 58.8253 385.655 49.5104C384.559 41.1742 390.245 33.8724 397.743 31.2578C388.813 32.7438 381.354 40.8562 382.595 50.2956Z" fill="#231F20"/>
</svg>
