<svg width="382" height="247" viewBox="0 0 382 247" fill="none" xmlns="http://www.w3.org/2000/svg">
<g clip-path="url(#clip0_15_689)">
<path d="M60.2146 64.9336L66.7691 65.3822L67.8528 72.6761L59.1816 73.2483L60.2146 64.9336Z" fill="#ED9DA0"/>
<path d="M222.721 7.57728C250.92 -7.5107 286.71 0.39933 305.685 27.152L305.04 27.6101C286.299 1.18724 250.946 -6.62301 223.094 8.27532C220.727 9.54141 218.443 10.9553 216.255 12.5087C187.613 32.8226 180.838 72.6516 201.153 101.292L200.507 101.75C179.94 72.7525 186.799 32.4291 215.797 11.8625C218.013 10.2904 220.325 8.85919 222.721 7.57728Z" fill="#090814"/>
<path d="M372.109 72.0678L279.359 64.8538C277.919 64.7401 276.584 64.0602 275.645 62.9632C274.706 61.8662 274.24 60.4416 274.35 59.0018L278.371 13.9374C278.485 12.4976 279.165 11.1617 280.262 10.2227C281.36 9.28376 282.785 8.81842 284.225 8.9288L376.975 16.1444C378.415 16.258 379.751 16.9381 380.69 18.0355C381.629 19.1329 382.094 20.5579 381.984 21.9979L377.963 67.0607C377.849 68.5002 377.169 69.8357 376.071 70.7744C374.974 71.713 373.549 72.1781 372.109 72.0678Z" fill="#E6E6E6"/>
<path d="M350.2 61.8885C349.496 61.8885 348.79 61.861 348.081 61.8061L288.139 57.1432C286.941 57.05 285.772 56.7216 284.701 56.1768C283.629 55.6321 282.675 54.8816 281.894 53.9682C281.112 53.0548 280.518 51.9964 280.146 50.8535C279.773 49.7105 279.629 48.5054 279.723 47.3069L281.089 29.7372C281.28 27.3176 282.423 25.0725 284.267 23.4945C286.112 21.9166 288.507 21.1347 290.927 21.3203L368.438 27.3505C370.857 27.5415 373.102 28.6843 374.679 30.528C376.257 32.3717 377.039 34.7659 376.854 37.1855C376.332 43.9001 373.298 50.1711 368.358 54.7491C363.419 59.3271 356.935 61.8759 350.2 61.8877V61.8885Z" fill="white"/>
<path d="M322.194 55.7328L329.6 55.0352L330.471 64.3203L321.822 65.0726L322.194 55.7328Z" fill="#ED9DA0"/>
<path d="M366.583 41.3176L290.599 35.4063C290.282 35.3772 289.99 35.2248 289.785 34.9819C289.58 34.739 289.479 34.4251 289.504 34.1083C289.528 33.7914 289.677 33.497 289.917 33.2887C290.157 33.0805 290.469 32.9751 290.786 32.9954L366.771 38.9067C366.931 38.917 367.087 38.9589 367.23 39.03C367.374 39.1011 367.502 39.2001 367.607 39.3211C367.712 39.4421 367.792 39.5827 367.842 39.7349C367.892 39.887 367.912 40.0476 367.899 40.2073C367.887 40.367 367.843 40.5227 367.769 40.6652C367.696 40.8077 367.596 40.9344 367.473 41.0377C367.351 41.141 367.209 41.2189 367.056 41.267C366.903 41.315 366.743 41.3322 366.583 41.3176Z" fill="#E6E6E6"/>
<path d="M335.032 43.6551L290.228 40.1709C289.911 40.1419 289.619 39.9894 289.414 39.7465C289.209 39.5036 289.108 39.1898 289.133 38.8729C289.157 38.5561 289.306 38.2617 289.546 38.0534C289.786 37.8451 290.098 37.7397 290.415 37.76L335.22 41.2443C335.536 41.2733 335.829 41.4258 336.034 41.6687C336.239 41.9116 336.34 42.2254 336.315 42.5423C336.29 42.8591 336.142 43.1535 335.902 43.3618C335.662 43.5701 335.349 43.6755 335.032 43.6551Z" fill="#E6E6E6"/>
<path d="M344.902 49.2153L289.858 44.9329C289.541 44.9038 289.249 44.7514 289.044 44.5085C288.839 44.2656 288.738 43.9517 288.762 43.6349C288.787 43.318 288.936 43.0236 289.176 42.8153C289.416 42.6071 289.728 42.5017 290.045 42.522L345.09 46.8041C345.406 46.8331 345.699 46.9856 345.904 47.2285C346.109 47.4714 346.21 47.7852 346.185 48.1021C346.16 48.4189 346.012 48.7133 345.772 48.9216C345.532 49.1299 345.219 49.2352 344.902 49.2149L344.902 49.2153Z" fill="#E6E6E6"/>
<path d="M365.903 133.24L273.153 126.026C271.713 125.912 270.377 125.232 269.438 124.135C268.5 123.038 268.034 121.614 268.144 120.174L272.165 75.1112C272.278 73.6715 272.958 72.3355 274.056 71.3966C275.153 70.4576 276.578 69.9923 278.018 70.1026L370.769 77.3182C372.208 77.4319 373.544 78.1121 374.483 79.2094C375.422 80.3068 375.887 81.7318 375.777 83.1717L371.756 128.235C371.642 129.674 370.961 131.009 369.864 131.947C368.767 132.885 367.342 133.35 365.903 133.24Z" fill="#E6E6E6"/>
<path d="M343.97 123.06C343.276 123.06 342.577 123.033 341.874 122.978L281.933 118.316C280.735 118.222 279.566 117.894 278.494 117.349C277.423 116.804 276.469 116.054 275.687 115.141C274.906 114.227 274.312 113.169 273.939 112.026C273.567 110.883 273.423 109.678 273.516 108.479L274.883 90.9095C275.072 88.489 276.214 86.2423 278.058 84.6639C279.903 83.0854 282.299 82.3044 284.72 82.4927L362.231 88.5228C364.652 88.7111 366.898 89.8532 368.477 91.6979C370.055 93.5425 370.836 95.9386 370.648 98.3591C370.117 105.075 367.078 111.344 362.135 115.921C357.192 120.498 350.706 123.047 343.97 123.06Z" fill="white"/>
<path d="M360.377 102.49L284.392 96.5785C284.232 96.5683 284.076 96.5264 283.933 96.4553C283.789 96.3841 283.661 96.2852 283.556 96.1642C283.451 96.0432 283.371 95.9025 283.321 95.7504C283.271 95.5982 283.252 95.4377 283.264 95.278C283.276 95.1182 283.32 94.9626 283.394 94.82C283.467 94.6775 283.567 94.5509 283.69 94.4476C283.812 94.3443 283.954 94.2663 284.107 94.2183C284.26 94.1702 284.42 94.153 284.58 94.1677L360.565 100.079C360.881 100.108 361.174 100.26 361.378 100.503C361.583 100.746 361.685 101.06 361.66 101.377C361.635 101.694 361.487 101.988 361.247 102.197C361.007 102.405 360.694 102.51 360.377 102.49Z" fill="#E6E6E6"/>
<path d="M328.826 104.828L284.021 101.343C283.861 101.333 283.705 101.291 283.562 101.22C283.418 101.149 283.29 101.05 283.185 100.929C283.08 100.808 283 100.667 282.95 100.515C282.9 100.363 282.88 100.203 282.893 100.043C282.905 99.8831 282.949 99.7275 283.023 99.5849C283.096 99.4424 283.196 99.3158 283.319 99.2125C283.441 99.1092 283.583 99.0312 283.736 98.9832C283.889 98.9351 284.049 98.9179 284.209 98.9325L329.013 102.417C329.33 102.446 329.622 102.598 329.827 102.841C330.032 103.084 330.133 103.398 330.109 103.715C330.084 104.032 329.935 104.326 329.695 104.534C329.455 104.743 329.143 104.848 328.826 104.828Z" fill="#E6E6E6"/>
<path d="M338.695 110.388L283.651 106.106C283.491 106.095 283.335 106.053 283.191 105.982C283.048 105.911 282.92 105.812 282.815 105.691C282.71 105.57 282.63 105.43 282.58 105.277C282.53 105.125 282.51 104.965 282.523 104.805C282.535 104.645 282.579 104.49 282.652 104.347C282.725 104.205 282.826 104.078 282.949 103.975C283.071 103.871 283.213 103.793 283.366 103.745C283.518 103.697 283.679 103.68 283.839 103.695L338.883 107.977C339.2 108.006 339.492 108.158 339.697 108.401C339.902 108.644 340.003 108.958 339.979 109.275C339.954 109.592 339.806 109.886 339.565 110.094C339.325 110.303 339.013 110.408 338.696 110.388H338.695Z" fill="#E6E6E6"/>
<path d="M129.973 109.697C127.595 104.309 127.455 98.1969 129.584 92.7055C131.713 87.2141 135.936 82.7934 141.324 80.4157C146.713 78.038 152.825 77.8982 158.317 80.0271C163.808 82.1559 168.229 86.3789 170.607 91.7672L169.882 92.0871C168.747 89.5143 167.116 87.1903 165.082 85.2478C163.049 83.3052 160.653 81.7822 158.03 80.7658C155.408 79.7493 152.612 79.2592 149.8 79.3235C146.989 79.3878 144.217 80.0052 141.645 81.1405C139.072 82.2758 136.748 83.9067 134.805 85.9401C132.862 87.9736 131.339 90.3697 130.323 92.9918C129.306 95.6138 128.816 98.4104 128.881 101.222C128.945 104.033 129.562 106.805 130.698 109.377L129.973 109.697Z" fill="#090814"/>
<path d="M336.179 220.182C335.42 219.037 334.902 217.75 334.656 216.399C334.41 215.048 334.44 213.661 334.747 212.322C334.81 212.064 334.348 211.957 334.285 212.214C333.969 213.609 333.94 215.052 334.199 216.458C334.459 217.864 335.001 219.202 335.793 220.392C335.948 220.634 336.333 220.423 336.179 220.182Z" fill="white"/>
<path d="M360.302 130.052L354.791 100.713L343.972 86.4731L335.954 91.715C337.087 97.8595 345.657 109.331 345.657 109.331L353.253 132.018C353.222 132.137 353.194 132.255 353.174 132.377C353.053 133.095 353.12 133.832 353.367 134.517C353.614 135.201 354.034 135.81 354.586 136.285C355.138 136.76 355.803 137.085 356.516 137.228C357.23 137.37 357.969 137.327 358.661 137.101C359.353 136.875 359.975 136.474 360.466 135.937C360.958 135.4 361.303 134.746 361.468 134.037C361.633 133.328 361.612 132.588 361.408 131.89C361.203 131.191 360.822 130.557 360.301 130.049L360.302 130.052Z" fill="#ED9DA0"/>
<path d="M336.17 94.8162L345.247 87.449L345.265 87.4094C346.962 83.5625 343.193 76.9657 339.732 72.1096C338.589 70.5095 336.881 69.403 334.954 69.0134C333.027 68.6239 331.023 68.9805 329.349 70.0111C328.119 70.78 327.128 71.8777 326.489 73.18C325.85 74.4823 325.589 75.9374 325.733 77.3807L326.497 84.7301L336.17 94.8162Z" fill="#3F3D56"/>
<path d="M304.089 240.817H297.247L293.992 217.522H304.091L304.089 240.817Z" fill="#ED9DA0"/>
<path d="M332.183 240.817H324.545L320.911 217.522H332.184L332.183 240.817Z" fill="#ED9DA0"/>
<path d="M333.013 238.043C330.528 235.679 331.174 238.043 323.993 235.123L320.145 238.043C317.97 238.043 315.884 238.907 314.346 240.445C312.808 241.983 311.944 244.068 311.944 246.243V246.51H333.013C333.013 246.51 335.499 240.407 333.013 238.043Z" fill="#090814"/>
<path d="M340.097 140.477C340.097 140.477 340.803 148.939 339.04 157.049C337.276 165.159 337.276 187.998 337.276 187.998L333.396 232.506L321.759 231.448L318.587 157.049L307.303 182.085L308.361 185.611L306.952 186.492C306.952 186.492 308.008 193.368 307.303 193.368C306.598 193.368 304.835 194.426 304.835 194.426L306.245 230.744L294.256 230.392L290.026 179.264L294.61 149.997L294.962 144.356L296.549 144.421L297.358 142.064L298.842 138.009L340.097 140.477Z" fill="#090814"/>
<path d="M340.707 142.254L340.77 142.166C344.126 137.467 339.078 126.176 338.315 124.539L342.908 112.173L342.915 112.112L344.325 99.7703L346.376 91.5744C347.148 88.4757 347.083 85.2271 346.185 82.1622C345.287 79.0973 343.59 76.3265 341.268 74.1342L336.528 69.6648L330.769 61.1399H321.478L318.292 67.1581C315.204 67.872 312.464 69.6466 310.55 72.1727C308.635 74.6989 307.668 77.8166 307.816 80.9827L308.537 96.7628L305.711 116.41V119.966L303.225 126.974C299.293 133.583 296.492 138.852 296.745 139.025C298.734 140.371 309.732 143.119 314.599 141.172C319.783 139.098 340.392 142.208 340.6 142.241L340.707 142.254Z" fill="#3F3D56"/>
<path d="M259.918 246.529C259.918 246.59 259.929 246.652 259.953 246.709C259.976 246.766 260.011 246.818 260.054 246.861C260.098 246.905 260.15 246.94 260.206 246.964C260.263 246.987 260.324 247 260.386 247H371.37C371.495 247 371.614 246.95 371.703 246.862C371.791 246.774 371.841 246.654 371.841 246.529C371.841 246.404 371.791 246.284 371.703 246.196C371.614 246.107 371.495 246.058 371.37 246.058H260.389C260.264 246.057 260.145 246.106 260.056 246.194C259.968 246.282 259.918 246.401 259.918 246.526V246.529Z" fill="#E6E6E6"/>
<path d="M324.924 59.1792C331.719 59.1792 337.227 53.6708 337.227 46.8759C337.227 40.0809 331.719 34.5725 324.924 34.5725C318.129 34.5725 312.62 40.0809 312.62 46.8759C312.62 53.6708 318.129 59.1792 324.924 59.1792Z" fill="#ED9DA0"/>
<path d="M323.745 59.3792C325.65 59.3597 327.551 59.1776 329.425 58.8347C331.281 58.4071 335.375 55.2412 336.491 53.3708C337.32 51.9811 337.818 49.8319 338.089 48.2735C338.456 46.2112 338.385 44.0949 337.882 42.0616C337.379 40.0283 336.454 38.1234 335.168 36.4702C334.672 35.7776 333.998 35.2319 333.218 34.8908C333.149 34.8659 333.077 34.8441 333.006 34.8255C331.875 34.5589 330.849 33.9602 330.06 33.1063C329.907 32.9335 329.742 32.772 329.565 32.6229C328.68 31.915 327.641 31.4266 326.531 31.1975C324.738 30.7667 322.173 31.3064 318.908 32.8026C317.267 33.5549 315.446 33.3447 314.043 33.0798C313.964 33.0667 313.884 33.0745 313.809 33.1023C313.734 33.1301 313.668 33.1769 313.617 33.2382C313.038 33.811 312.263 34.1432 311.449 34.1682C310.951 34.2031 310.445 34.9071 309.836 35.8241C309.698 36.0323 309.536 36.275 309.419 36.4235L309.396 36.1463L309.122 36.4631C308.691 36.9634 308.394 37.5647 308.258 38.2108C308.122 38.857 308.151 39.5271 308.344 40.1587C308.537 40.7902 308.886 41.3628 309.36 41.823C309.833 42.2832 310.416 42.616 311.052 42.7906C311.558 42.9111 312.074 42.9797 312.593 42.9953C312.908 43.0155 313.233 43.0349 313.546 43.0824C314.55 43.2612 315.491 43.6973 316.277 44.3482C317.062 44.9992 317.665 45.8426 318.027 46.7963C318.114 47.0159 318.249 47.2129 318.423 47.372C318.598 47.5312 318.806 47.6483 319.033 47.7143C319.259 47.7803 319.498 47.7936 319.731 47.7529C319.963 47.7123 320.183 47.619 320.374 47.4801C320.692 47.2192 321.068 47.0391 321.47 46.955C321.873 46.871 322.289 46.8855 322.685 46.9974C323.029 47.1772 323.301 47.4698 323.455 47.8261C323.641 48.2227 323.941 48.5548 324.316 48.7803C325.597 49.3996 325.759 52.2844 325.367 54.7031C324.989 57.0344 324.167 58.7354 323.369 58.8387C322.754 58.9179 322.684 58.9642 322.643 59.0743L322.605 59.1729L322.677 59.2624C323.021 59.3771 323.386 59.4163 323.746 59.3772L323.745 59.3792Z" fill="#090814"/>
<path d="M188.527 122.005C202.038 122.005 212.992 111.052 212.992 97.5403C212.992 84.0288 202.038 73.0757 188.527 73.0757C175.015 73.0757 164.062 84.0288 164.062 97.5403C164.062 111.052 175.015 122.005 188.527 122.005Z" fill="#0A58C9"/>
<path d="M320.911 93.8996L312.841 88.7385C307.702 92.2929 300.757 104.814 300.757 104.814L283.18 121.053C282.448 121.179 281.762 121.495 281.191 121.97C280.62 122.445 280.184 123.062 279.927 123.76C279.67 124.457 279.602 125.209 279.728 125.941C279.855 126.673 280.172 127.359 280.648 127.93C281.124 128.5 281.741 128.935 282.439 129.191C283.136 129.447 283.889 129.515 284.621 129.387C285.353 129.26 286.038 128.942 286.608 128.466C287.178 127.989 287.612 127.371 287.868 126.673L312.364 109.608L320.911 93.8996Z" fill="#ED9DA0"/>
<path d="M320.142 95.9939L325.516 83.0947L323.572 75.9678C323.186 74.5694 322.416 73.307 321.35 72.3232C320.283 71.3394 318.963 70.6736 317.538 70.4009C315.604 70.045 313.607 70.4364 311.951 71.4961C310.295 72.5558 309.102 74.2046 308.615 76.1095C307.143 81.8902 306.012 89.4015 308.986 92.375L309.016 92.4051L320.142 95.9939Z" fill="#3F3D56"/>
<path d="M58.3996 105.299L59.1915 112.649L58.7251 122.288L80.0752 119.752L82.0815 105.3L79.5253 105.325L58.3996 105.299Z" fill="#FFB6B6"/>
<path d="M46.564 238.752H52.416L55.2015 220.748H46.564V238.752Z" fill="#ED9DA0"/>
<path d="M45.9455 233.838L54.5375 233.323V237.005L62.7063 242.647C63.1098 242.925 63.4137 243.325 63.5737 243.789C63.7336 244.252 63.7411 244.755 63.5952 245.223C63.4493 245.691 63.1575 246.1 62.7625 246.391C62.3675 246.681 61.89 246.838 61.3997 246.838H51.1704L49.4073 243.195L48.7187 246.838H44.8618L45.9455 233.838Z" fill="#090814"/>
<path d="M72.3578 238.752H78.2796L81.0976 220.748H72.3578V238.752Z" fill="#ED9DA0"/>
<path d="M71.5624 233.838L80.1545 233.323V237.005L88.3236 242.647C88.727 242.926 89.0309 243.326 89.1907 243.789C89.3506 244.253 89.3581 244.755 89.2122 245.223C89.0663 245.692 88.7746 246.101 88.3797 246.391C87.9848 246.682 87.5073 246.839 87.017 246.839H76.7877L75.0246 243.196L74.336 246.839H70.4791L71.5624 233.838Z" fill="#090814"/>
<path d="M45.3117 223.226H45.3623C45.08 191.676 45.9242 180.888 47.5555 151.712C44.5633 132.322 58.8225 119.677 58.8225 119.677H80.1826L84.7684 135.432C87.8002 164.967 87.2498 193.748 82.4391 221.631L82.5701 221.698C83.0425 221.861 83.2432 222.515 83.0227 223.159C82.8022 223.802 82.2375 224.192 81.7652 224.03L70.4847 223.637C70.0123 223.474 69.8116 222.82 70.0321 222.176C70.2527 221.532 70.8173 221.142 71.2896 221.305L72.0566 221.693L70.4209 193.445L70.6023 188.285L70.2281 182.432L68.499 156.102L61.954 188.48L55.2693 223.553C55.4536 223.72 55.583 223.939 55.6403 224.181C55.6977 224.423 55.6803 224.677 55.5905 224.909C55.5007 225.141 55.3427 225.34 55.1373 225.48C54.932 225.621 54.6889 225.695 54.4402 225.695H45.3117C45.1478 225.697 44.985 225.668 44.8328 225.607C44.6805 225.546 44.5419 225.456 44.425 225.341C44.3081 225.226 44.2152 225.089 44.1518 224.938C44.0884 224.787 44.0558 224.625 44.0558 224.461C44.0558 224.297 44.0884 224.135 44.1518 223.984C44.2152 223.833 44.3081 223.696 44.425 223.581C44.5419 223.466 44.6805 223.376 44.8328 223.315C44.985 223.254 45.1478 223.225 45.3117 223.227V223.226Z" fill="#090814"/>
<path d="M62.1278 68.8716C68.4552 68.8716 73.5845 63.7424 73.5845 57.4152C73.5845 51.088 68.4552 45.9587 62.1278 45.9587C55.8005 45.9587 50.6711 51.088 50.6711 57.4152C50.6711 63.7424 55.8005 68.8716 62.1278 68.8716Z" fill="#ED9DA0"/>
<path d="M11.9243 110.345C13.5345 106.607 15.7457 103.157 18.4701 100.134C16.1631 103.81 14.8447 108.02 14.6425 112.356C15.4774 112.878 16.3511 113.335 17.2557 113.723C19.9753 114.864 22.875 115.515 25.8212 115.648C27.4093 110.357 30.1501 105.485 33.8466 101.38C31.1826 105.629 29.8429 110.573 29.9981 115.585C33.2842 115.301 36.5219 114.607 39.6358 113.52C44.3111 111.912 48.8498 109.509 52.0831 105.773C55.5825 101.73 57.3072 96.3936 57.8639 91.0738C58.4206 85.7539 57.8972 80.3929 57.3694 75.0735C57.1199 72.5395 59.2303 69.6211 58.9821 67.0859H58.8158C57.7071 65.5647 56.5755 64.0063 56.0311 62.2028C55.4866 60.3993 55.632 58.2795 56.8748 56.8624C57.571 56.1219 58.4495 55.5773 59.4223 55.283C59.5138 55.1666 59.6136 55.0545 59.7173 54.9421C61.5991 52.9433 63.814 51.2867 66.2631 50.0463C64.4968 51.3802 63.3165 52.8892 62.7677 54.4476C64.2971 54.111 65.8265 53.7758 67.3559 53.4419C67.8671 52.9003 68.4054 52.385 68.9686 51.8977C69.7874 51.187 70.0574 51.1332 71.0342 50.464C70.2462 51.1578 69.6353 52.0299 69.2525 53.0075C71.2184 52.513 73.1842 51.7691 74.2066 50.0776C75.9024 47.2807 73.8866 43.507 71.073 41.8366C69.0264 40.6804 66.6681 40.1968 64.3316 40.4541C61.995 40.7114 59.7985 41.6965 58.0524 43.2703C53.9836 40.2738 48.1902 40.3237 43.6641 42.5639C40.6761 44.1089 38.1022 46.3478 36.1582 49.0929C37.2858 48.948 38.4209 48.8686 39.5578 48.8554C37.9574 49.0895 36.4335 49.6927 35.1065 50.6173C34.5195 51.5287 33.9811 52.4707 33.4939 53.4391C33.1739 54.075 32.872 54.7192 32.5879 55.3717C30.8458 59.3366 29.7118 63.5589 28.5358 67.7313C27.1643 72.5938 25.6929 77.4895 23.1248 81.8405C19.1869 88.4569 12.9747 93.4134 5.64898 95.7838C5.03804 101.281 7.72255 106.658 11.9243 110.345Z" fill="#090814"/>
<path d="M73.6649 77.003L71.4413 75.9102L68.6372 69.9771L58.649 71.0453L56.2215 77.4068L50.3738 83.2512L52.9312 100.878L56.9045 122.288L83.5029 117.937L83.4748 101.82C83.4748 101.82 88.2812 89.0862 80.5171 84.3147L73.6649 77.003Z" fill="#0A58C9"/>
<path d="M114.664 118.068C114.148 118.275 113.592 118.367 113.036 118.336C112.481 118.305 111.939 118.153 111.448 117.89C110.958 117.627 110.531 117.26 110.198 116.815C109.865 116.369 109.634 115.856 109.52 115.311L79.863 97.3681L85.2839 91.1123L112.731 110.718C113.659 110.588 114.602 110.803 115.382 111.322C116.162 111.841 116.725 112.628 116.963 113.535C117.201 114.441 117.099 115.403 116.675 116.238C116.251 117.074 115.536 117.725 114.664 118.068V118.068Z" fill="#ED9DA0"/>
<path d="M69.9806 88.8554C69.9806 88.8554 68.5631 90.2808 72.1187 92.6263C74.966 94.5035 87.6651 103.78 92.1666 105.247C92.1103 105.908 92.2755 106.57 92.6363 107.127C92.9971 107.684 93.5329 108.105 94.1594 108.324L98.2353 99.3668C97.3531 97.319 95.9416 97.7933 95.1992 98.2582L90.2764 94.5562L78.1882 82.4856L70.9855 87.8074L69.9806 88.8554Z" fill="#0A58C9"/>
<path d="M58.1244 43.5796C56.7475 45.6117 55.8579 47.934 55.525 50.366C55.1921 52.798 55.4247 55.2739 56.2049 57.6013" fill="#FD6584"/>
<path d="M2.68131e-06 246.529C-0.000206558 246.591 0.0118323 246.652 0.035437 246.709C0.0590416 246.767 0.0937404 246.819 0.137535 246.862C0.181329 246.906 0.233358 246.941 0.290618 246.964C0.347878 246.988 0.409239 247 0.471173 247H111.451C111.576 247 111.696 246.95 111.784 246.862C111.872 246.774 111.922 246.654 111.922 246.529C111.922 246.404 111.872 246.284 111.784 246.196C111.696 246.107 111.576 246.058 111.451 246.058H0.471173C0.409253 246.057 0.347915 246.07 0.290679 246.093C0.233442 246.117 0.18144 246.151 0.137656 246.195C0.0938717 246.239 0.059169 246.291 0.0355457 246.348C0.0119224 246.406 -0.000154012 246.467 2.68131e-06 246.529Z" fill="#E6E6E6"/>
<path d="M42.283 139.438C42.0067 139.536 41.7804 139.739 41.6534 140.003C41.5265 140.267 41.5093 140.571 41.6056 140.848L57.0673 185.41C57.165 185.687 57.3681 185.913 57.6322 186.04C57.8964 186.167 58.2 186.184 58.4768 186.088L148.444 154.523C148.72 154.425 148.946 154.222 149.073 153.958C149.2 153.694 149.217 153.39 149.121 153.113L133.659 108.55C133.562 108.274 133.358 108.047 133.094 107.92C132.83 107.793 132.526 107.776 132.249 107.873L42.283 139.438Z" fill="#E6E6E6"/>
<path d="M65.0551 179.656C63.2843 179.656 61.557 179.108 60.1107 178.086C58.6643 177.064 57.5699 175.62 56.9778 173.951L48.4867 149.927C47.7305 147.787 47.8552 145.435 48.8335 143.387C49.8117 141.34 51.5633 139.764 53.7029 139.008L99.1729 122.937C107.685 119.939 117.038 120.44 125.181 124.329C133.324 128.219 139.591 135.18 142.608 143.684C143.364 145.824 143.24 148.176 142.261 150.224C141.283 152.272 139.532 153.847 137.392 154.604L67.8984 179.169C66.9853 179.492 66.0238 179.658 65.0551 179.658V179.656Z" fill="white"/>
<path d="M125.354 132.3L84.6393 146.583C84.0656 146.784 83.3549 146.247 83.0512 145.382C82.7475 144.517 82.9668 143.653 83.5406 143.452L124.255 129.167C124.829 128.966 125.539 129.504 125.843 130.369C126.147 131.233 125.927 132.1 125.354 132.3Z" fill="#E6E6E6"/>
<path d="M128.503 141.278L87.7882 155.561C87.2145 155.762 86.5038 155.224 86.2001 154.359C85.8964 153.495 86.1158 152.631 86.6895 152.429L127.404 138.144C127.978 137.943 128.688 138.481 128.992 139.346C129.296 140.21 129.076 141.075 128.503 141.278Z" fill="#E6E6E6"/>
<path d="M79.1301 151.468C79.5675 152.7 79.7799 154.001 79.7573 155.309C79.7487 155.907 79.6896 156.503 79.5807 157.09C79.2337 158.991 78.391 160.765 77.138 162.235C75.885 163.705 74.266 164.819 72.4448 165.462C70.6236 166.106 68.6647 166.257 66.7662 165.901C64.8677 165.545 63.0969 164.694 61.6329 163.434C61.4851 163.307 61.3411 163.177 61.2009 163.042C60.0053 161.896 59.0846 160.495 58.508 158.942C57.9314 157.39 57.7139 155.727 57.8717 154.079C58.0295 152.43 58.5586 150.839 59.4193 149.424C60.2799 148.009 61.4498 146.807 62.8412 145.909C64.2325 145.011 65.8092 144.44 67.4529 144.238C69.0966 144.036 70.7647 144.209 72.332 144.744C73.8993 145.279 75.3251 146.162 76.5025 147.326C77.6799 148.491 78.5782 149.907 79.1301 151.468Z" fill="#E4E4E4"/>
<path d="M69.2461 156.798C70.404 156.798 71.3427 155.86 71.3427 154.702C71.3427 153.544 70.404 152.605 69.2461 152.605C68.0882 152.605 67.1496 153.544 67.1496 154.702C67.1496 155.86 68.0882 156.798 69.2461 156.798Z" fill="#FD6584"/>
<path d="M61.2009 163.042C61.739 161.793 62.3753 159.887 63.849 160.581C64.5772 160.897 65.881 161.855 66.4104 160.739L70.5559 152.062C70.6347 151.9 70.745 151.756 70.8804 151.637C71.0157 151.519 71.1734 151.429 71.3441 151.372C71.5148 151.315 71.6951 151.293 71.8744 151.307C72.0538 151.321 72.2285 151.371 72.3884 151.453L79.7581 155.309C79.7495 155.907 79.6904 156.503 79.5815 157.09L61.6337 163.434L61.2009 163.042Z" fill="#090814"/>
<path d="M63.3402 137.416C62.8216 137.214 62.3535 136.902 61.969 136.5C61.5844 136.097 61.2926 135.616 61.1143 135.089C60.9359 134.562 60.8752 134.002 60.9366 133.449C60.998 132.896 61.1798 132.363 61.4694 131.888L52.0854 98.5192L60.3172 97.6592L66.9512 130.731C67.7173 131.27 68.259 132.072 68.4735 132.983C68.688 133.895 68.5605 134.854 68.1151 135.679C67.6697 136.503 66.9373 137.135 66.0569 137.455C65.1765 137.776 64.2091 137.762 63.3382 137.416L63.3402 137.416Z" fill="#ED9DA0"/>
<path d="M50.6992 80.2009C50.6992 80.2009 48.6898 80.273 49.6832 84.4153C50.4783 87.7317 53.3984 108.535 55.6814 112.682C55.1883 113.127 54.8569 113.722 54.7396 114.375C54.6222 115.029 54.7255 115.702 55.0333 116.29L64.1309 112.538C64.8864 110.439 64.3016 108.536 63.442 108.367L62.3792 102.3L60.8129 81.949L52.1508 80.1245L50.6992 80.2009Z" fill="#0A58C9"/>
<path d="M132.651 168L120.07 168.521C119.801 168.532 119.533 168.483 119.286 168.376C119.04 168.27 118.82 168.109 118.644 167.905C118.471 167.707 118.344 167.472 118.275 167.217C118.205 166.963 118.194 166.696 118.242 166.437C119.207 161.173 118.926 155.755 117.42 150.618C117.304 150.226 117.327 149.805 117.487 149.427C117.646 149.05 117.932 148.739 118.294 148.549C123.448 145.872 128.277 145.736 132.646 148.145C132.875 148.269 133.074 148.442 133.229 148.651C133.385 148.861 133.493 149.101 133.545 149.357C134.683 154.961 134.955 160.707 134.354 166.395C134.312 166.823 134.117 167.221 133.804 167.517C133.491 167.812 133.081 167.983 132.651 168Z" fill="#0A58C9"/>
<path d="M132.12 159.765L122.498 160.163C122.26 160.172 122.028 160.085 121.852 159.923C121.677 159.761 121.574 159.537 121.564 159.298C121.554 159.06 121.639 158.827 121.8 158.651C121.961 158.475 122.185 158.37 122.423 158.359L132.045 157.96C132.283 157.952 132.515 158.038 132.69 158.2C132.865 158.362 132.969 158.587 132.979 158.825C132.989 159.064 132.904 159.296 132.743 159.472C132.582 159.648 132.358 159.754 132.12 159.765Z" fill="white"/>
<path d="M131.988 156.6L122.367 156.999C122.129 157.007 121.896 156.921 121.721 156.759C121.546 156.597 121.443 156.372 121.433 156.134C121.423 155.895 121.508 155.663 121.669 155.487C121.83 155.311 122.054 155.205 122.292 155.194L131.914 154.796C132.152 154.787 132.384 154.874 132.559 155.036C132.734 155.198 132.838 155.423 132.848 155.661C132.858 155.899 132.773 156.132 132.612 156.308C132.451 156.484 132.227 156.589 131.988 156.6Z" fill="white"/>
<path d="M362.759 69.5805L350.273 67.9429C350.006 67.9085 349.75 67.8141 349.525 67.6668C349.3 67.5195 349.111 67.3231 348.973 67.0924C348.836 66.8673 348.752 66.6141 348.726 66.3517C348.701 66.0893 348.736 65.8247 348.827 65.5776C350.679 60.5555 351.328 55.1695 350.722 49.8513C350.675 49.4444 350.77 49.0337 350.992 48.6892C351.213 48.3446 351.548 48.0876 351.937 47.9619C357.473 46.2051 362.254 46.8968 366.147 50.0172C366.351 50.1788 366.517 50.3829 366.635 50.6154C366.752 50.8479 366.817 51.1032 366.826 51.3634C366.988 57.0802 366.274 62.7881 364.709 68.2889C364.595 68.7035 364.335 69.0626 363.976 69.2998C363.618 69.5371 363.185 69.6364 362.759 69.5793L362.759 69.5805Z" fill="#0A58C9"/>
<path d="M363.642 61.3773L354.095 60.1253C353.977 60.1111 353.862 60.0735 353.758 60.0147C353.654 59.956 353.563 59.8771 353.49 59.7828C353.416 59.6885 353.362 59.5805 353.331 59.4653C353.3 59.35 353.292 59.2296 353.307 59.1112C353.323 58.9927 353.362 58.8785 353.421 58.7752C353.481 58.6719 353.561 58.5815 353.656 58.5093C353.752 58.437 353.86 58.3844 353.976 58.3544C354.091 58.3244 354.212 58.3176 354.33 58.3345L363.877 59.5864C364.112 59.62 364.325 59.745 364.469 59.9344C364.612 60.1238 364.676 60.3622 364.645 60.5979C364.614 60.8337 364.491 61.0477 364.303 61.1936C364.116 61.3395 363.878 61.4055 363.642 61.3773Z" fill="white"/>
<path d="M364.054 58.2357L354.507 56.9825C354.272 56.949 354.059 56.8239 353.915 56.6346C353.772 56.4452 353.708 56.2068 353.739 55.971C353.77 55.7353 353.893 55.5213 354.08 55.3754C354.268 55.2295 354.506 55.1635 354.742 55.1917L364.289 56.4437C364.524 56.4772 364.737 56.6023 364.88 56.7916C365.024 56.981 365.087 57.2194 365.057 57.4551C365.026 57.6909 364.903 57.9049 364.715 58.0508C364.528 58.1967 364.29 58.2627 364.054 58.2345V58.2357Z" fill="white"/>
<path d="M196.446 93.7793H192.288V89.622C192.288 88.6244 191.892 87.6677 191.186 86.9623C190.481 86.2569 189.524 85.8606 188.527 85.8606C187.529 85.8606 186.572 86.2569 185.867 86.9623C185.162 87.6677 184.765 88.6244 184.765 89.622V93.7793H180.608C179.61 93.7793 178.653 94.1756 177.948 94.881C177.243 95.5864 176.846 96.5432 176.846 97.5407C176.846 98.5383 177.243 99.4951 177.948 100.2C178.653 100.906 179.61 101.302 180.608 101.302H184.765V105.459C184.765 106.457 185.162 107.414 185.867 108.119C186.572 108.825 187.529 109.221 188.527 109.221C189.524 109.221 190.481 108.825 191.186 108.119C191.892 107.414 192.288 106.457 192.288 105.459V101.302H196.446C197.443 101.302 198.4 100.906 199.105 100.2C199.811 99.4951 200.207 98.5383 200.207 97.5407C200.207 96.5432 199.811 95.5864 199.105 94.881C198.4 94.1756 197.443 93.7793 196.446 93.7793Z" fill="white"/>
<path d="M331.081 16.8408C333.27 16.8408 335.045 15.0662 335.045 12.8771C335.045 10.688 333.27 8.91333 331.081 8.91333C328.892 8.91333 327.117 10.688 327.117 12.8771C327.117 15.0662 328.892 16.8408 331.081 16.8408Z" fill="#090814"/>
<path d="M87.5745 128.891C89.7636 128.891 91.5383 127.116 91.5383 124.927C91.5383 122.738 89.7636 120.964 87.5745 120.964C85.3853 120.964 83.6107 122.738 83.6107 124.927C83.6107 127.116 85.3853 128.891 87.5745 128.891Z" fill="#3F3D56"/>
<path d="M305.693 238.043C303.208 235.679 303.854 238.043 296.673 235.123L292.824 238.043C290.649 238.043 288.564 238.907 287.026 240.445C285.488 241.983 284.624 244.068 284.624 246.243V246.51H305.693C305.693 246.51 308.178 240.407 305.693 238.043Z" fill="#090814"/>
</g>
<defs>
<clipPath id="clip0_15_689">
<rect width="382" height="247" fill="white"/>
</clipPath>
</defs>
</svg>
