<svg width="73" height="88" viewBox="0 0 73 88" fill="none" xmlns="http://www.w3.org/2000/svg">
<path d="M36.5005 34.1753C43.6565 34.1753 49.4812 28.3477 49.4812 21.1875C49.4812 14.0276 43.6568 8.19966 36.5005 8.19966C29.3442 8.19966 23.5198 14.0273 23.5198 21.1875C23.5198 28.3473 29.3442 34.1753 36.5005 34.1753ZM36.5005 10.3065C42.4967 10.3065 47.3762 15.1887 47.3762 21.1881C47.3762 27.1876 42.4967 32.0697 36.5005 32.0697C30.5043 32.0697 25.6248 27.1876 25.6248 21.1881C25.6248 15.1887 30.5043 10.3065 36.5005 10.3065ZM29.2285 21.214C29.585 20.7584 30.2465 20.6768 30.7062 21.0335L34.4044 23.9301L42.2091 16.2975C42.6257 15.8935 43.2915 15.8978 43.6953 16.3147C44.099 16.7315 44.0947 17.3977 43.6781 17.8017L35.2121 26.0789C35.0102 26.2766 34.7439 26.3798 34.4776 26.3798C34.2499 26.3798 34.0223 26.3067 33.829 26.1563L29.4049 22.6924C28.9496 22.3357 28.868 21.6739 29.2245 21.214L29.2285 21.214ZM16.0938 54.3189C16.0938 54.3361 16.0938 54.3533 16.0981 54.3705C16.0981 54.3877 16.1024 54.4006 16.1024 54.4178C16.1067 54.4349 16.1067 54.4521 16.111 54.4736C16.1153 54.4908 16.1196 54.5037 16.1239 54.5209C16.1282 54.5381 16.1325 54.5553 16.1368 54.5725C16.1411 54.5897 16.1497 54.6068 16.154 54.624C16.1583 54.6369 16.1626 54.6541 16.1712 54.667C16.1797 54.6885 16.1883 54.7057 16.1969 54.7272C16.2012 54.7358 16.2055 54.7444 16.2098 54.753C16.2098 54.7573 16.2141 54.7573 16.2141 54.7616C16.227 54.7831 16.2399 54.8045 16.2485 54.826C16.2528 54.8346 16.2614 54.8432 16.2657 54.8518C16.2785 54.8733 16.2914 54.8905 16.3043 54.9077C16.3129 54.9163 16.3172 54.9249 16.3258 54.9378C16.3387 54.955 16.3516 54.9678 16.3644 54.9807C16.373 54.9936 16.3859 55.0022 16.3945 55.0151C16.4074 55.028 16.416 55.0366 16.4289 55.0452C16.4418 55.0581 16.4589 55.071 16.4718 55.0839C16.4804 55.0925 16.489 55.0968 16.4976 55.1054C16.5148 55.1183 16.5363 55.1355 16.5534 55.1483C16.562 55.1526 16.5706 55.1612 16.5792 55.1655C16.6007 55.1784 16.6222 55.1913 16.6436 55.2042C16.6479 55.2042 16.6479 55.2085 16.6522 55.2085C16.6565 55.2128 16.6651 55.2128 16.6694 55.2171C16.6952 55.23 16.7253 55.2429 16.7553 55.2558C16.7682 55.2601 16.7811 55.2644 16.7897 55.2687C16.8155 55.2773 16.8412 55.2859 16.867 55.2945C16.8799 55.2988 16.8885 55.3031 16.9014 55.3031C16.9744 55.3203 17.0517 55.3289 17.129 55.3289H17.1376H17.1505C17.1891 55.3289 17.2235 55.3246 17.2622 55.3203C17.2708 55.3203 17.2793 55.316 17.2879 55.316C17.3738 55.3031 17.4554 55.2816 17.5371 55.2472C17.5457 55.2429 17.5585 55.2386 17.5671 55.2343C17.5843 55.2257 17.6015 55.2214 17.6187 55.2128L22.0042 52.9565L22.6485 57.8515C22.6485 57.8515 22.6528 57.8601 22.6528 57.8644C22.6614 57.9246 22.6743 57.9805 22.6914 58.0363C22.6957 58.0449 22.6957 58.0492 22.7 58.0578C22.7172 58.1137 22.7387 58.1653 22.7688 58.2168C22.7731 58.2211 22.7731 58.2254 22.7731 58.2254C22.7988 58.277 22.8332 58.3243 22.8675 58.3672C22.8718 58.3715 22.8718 58.3758 22.8761 58.3758C22.9105 58.4188 22.9492 58.4575 22.9921 58.4962C22.9964 58.5005 23.005 58.5048 23.0093 58.5091C23.048 58.5435 23.0952 58.5735 23.1382 58.6036C23.1467 58.6079 23.1553 58.6165 23.1639 58.6208C23.1768 58.6294 23.1897 58.638 23.2026 58.6423C23.2369 58.6595 23.2713 58.6767 23.3057 58.6896C23.31 58.6939 23.3143 58.6939 23.3186 58.6982C23.3701 58.7197 23.4259 58.7326 23.4775 58.7411C23.4904 58.7454 23.5033 58.7454 23.5161 58.7497C23.572 58.7583 23.6278 58.7669 23.6837 58.7669C23.7051 58.7669 23.7266 58.7626 23.7438 58.7626C23.7696 58.7626 23.7953 58.7626 23.8211 58.7583C23.8254 58.7583 23.8297 58.7583 23.834 58.754C23.8727 58.7497 23.9113 58.7411 23.95 58.7326C23.9629 58.7283 23.9714 58.7283 23.98 58.724C24.0144 58.7154 24.0445 58.7025 24.0788 58.6896C24.0874 58.6853 24.096 58.681 24.1046 58.681C24.1433 58.6638 24.1819 58.6466 24.2206 58.6208L24.2249 58.6165C24.2592 58.595 24.2936 58.5735 24.3237 58.5478C24.3322 58.5392 24.3451 58.5306 24.3537 58.522C24.3795 58.5005 24.4053 58.479 24.4267 58.4532C24.4353 58.4446 24.4396 58.4403 24.4482 58.4317C24.4783 58.4016 24.5041 58.3673 24.5298 58.3329C24.5384 58.3243 24.5427 58.3157 24.5513 58.3071C24.5728 58.277 24.59 58.2426 24.6114 58.2125C24.6157 58.2082 24.62 58.2039 24.62 58.1996L33.6401 40.9838L34.8385 41.8562C35.3324 42.2172 35.9123 42.3977 36.4965 42.3977C37.0763 42.3977 37.6562 42.2172 38.1544 41.8562L39.3528 40.9838L48.3729 58.1996C48.3729 58.1996 48.3772 58.2082 48.3815 58.2125C48.3986 58.2469 48.4201 58.277 48.4416 58.3071C48.4502 58.3157 48.4545 58.3243 48.4631 58.3329C48.4888 58.3673 48.5146 58.3973 48.5447 58.4317C48.5533 58.4403 48.5576 58.4446 48.5662 58.4532C48.5876 58.4747 48.6134 58.5005 48.6392 58.522C48.6478 58.5306 48.6607 58.5392 48.6692 58.5478C48.6993 58.5735 48.7337 58.595 48.768 58.6165C48.7723 58.6165 48.7723 58.6208 48.7723 58.6208C48.811 58.6423 48.8497 58.6595 48.8883 58.681C48.8969 58.6853 48.9055 58.6896 48.9141 58.6939C48.9441 58.7068 48.9785 58.7197 49.0129 58.7283C49.0258 58.7326 49.0343 58.7369 49.0429 58.7369C49.0816 58.7454 49.1203 58.754 49.1589 58.7583C49.1632 58.7583 49.1675 58.7626 49.1718 58.7626C49.1976 58.7669 49.2233 58.7669 49.2491 58.7669C49.2706 58.7669 49.2921 58.7712 49.3135 58.7712C49.3694 58.7712 49.4252 58.7626 49.4854 58.754C49.4982 58.7497 49.5111 58.7497 49.524 58.7454C49.5799 58.7326 49.6314 58.7197 49.6829 58.7025C49.6872 58.7025 49.6915 58.6982 49.6958 58.6982C49.7302 58.6853 49.7645 58.6681 49.7989 58.6509C49.8118 58.6423 49.8247 58.6337 49.8376 58.6294C49.8462 58.6251 49.8548 58.6208 49.8633 58.6122C49.9106 58.5821 49.9535 58.5521 49.9965 58.5177C50.0008 58.5134 50.0051 58.5091 50.0137 58.5048C50.0566 58.4661 50.0953 58.4274 50.1339 58.3801C50.1382 58.3758 50.1382 58.3758 50.1382 58.3716C50.1726 58.3286 50.207 58.277 50.2327 58.2254C50.2327 58.2211 50.237 58.2211 50.237 58.2168C50.2628 58.1653 50.2886 58.1137 50.3058 58.0578C50.3101 58.0492 50.3101 58.0449 50.3143 58.0406C50.3315 57.9848 50.3444 57.9246 50.353 57.8687C50.353 57.8644 50.3573 57.8601 50.3573 57.8558L51.0016 52.9608L55.3871 55.2171C55.4043 55.2257 55.4172 55.23 55.4344 55.2386C55.4473 55.2429 55.4558 55.2472 55.4644 55.2515C55.546 55.2859 55.6277 55.3074 55.7136 55.3203C55.7222 55.3203 55.7307 55.3246 55.7393 55.3246C55.7737 55.3289 55.8124 55.3332 55.8467 55.3332H55.8639H55.8725C55.9111 55.3332 55.9455 55.3289 55.9842 55.3246H55.9928C56.0271 55.3203 56.0658 55.3117 56.1001 55.3031C56.113 55.2988 56.1259 55.2945 56.1388 55.2945C56.1646 55.2859 56.1903 55.2816 56.2161 55.273C56.229 55.2687 56.2419 55.2644 56.2505 55.2601C56.2805 55.2472 56.3063 55.2343 56.3364 55.2214C56.3407 55.2171 56.3493 55.2171 56.3536 55.2128C56.3579 55.2128 56.3579 55.2085 56.3622 55.2085C56.3836 55.1956 56.4051 55.1827 56.4266 55.1699C56.4352 55.1656 56.4438 55.1613 56.4524 55.157C56.4738 55.1441 56.491 55.1269 56.5125 55.114C56.5211 55.1097 56.5297 55.1011 56.534 55.0968C56.5511 55.0839 56.5683 55.0667 56.5855 55.0538C56.5941 55.0452 56.6027 55.0366 56.6113 55.028C56.6242 55.0151 56.6371 55.0022 56.6456 54.9894C56.6585 54.9765 56.6671 54.9636 56.68 54.9507C56.6886 54.9378 56.6972 54.9292 56.7058 54.9163C56.7187 54.8991 56.7315 54.8819 56.7401 54.8647C56.7487 54.8561 56.753 54.8432 56.7616 54.8346C56.7745 54.8174 56.7831 54.796 56.796 54.7745C56.796 54.7702 56.8003 54.7702 56.8003 54.7659C56.8046 54.7573 56.8089 54.7444 56.8132 54.7358C56.8218 54.7186 56.8303 54.7014 56.8389 54.6799C56.8475 54.6627 56.8518 54.6498 56.8561 54.6326C56.8604 54.6155 56.869 54.6026 56.8733 54.5854C56.8776 54.5682 56.8819 54.551 56.8862 54.5295C56.8905 54.5166 56.8948 54.4994 56.8948 54.4865C56.8991 54.4693 56.9034 54.4478 56.9034 54.4307C56.9077 54.4178 56.9077 54.4006 56.9077 54.3877C56.912 54.3705 56.912 54.3533 56.912 54.3318V54.2802C56.912 54.2631 56.912 54.2459 56.9077 54.233C56.9077 54.2158 56.9034 54.1986 56.9034 54.1771C56.9034 54.1642 56.8991 54.147 56.8991 54.1341C56.8948 54.1126 56.8948 54.0954 56.8905 54.074C56.8862 54.0611 56.8819 54.0439 56.8819 54.031C56.8776 54.0138 56.8733 53.9923 56.8647 53.9751C56.8604 53.9579 56.8518 53.945 56.8475 53.9278C56.8432 53.9106 56.8346 53.8935 56.8303 53.8806C56.8218 53.8634 56.8132 53.8462 56.8046 53.8247C56.8003 53.8161 56.796 53.8032 56.7917 53.7946L48.768 38.4821C49.3307 38.1383 49.7645 37.6054 49.9793 36.9436L51.5429 32.1345L55.632 29.1606C56.6243 28.4429 57.0323 27.175 56.6543 26.0104L55.0908 21.2013L56.6543 16.3922C57.0323 15.2276 56.62 13.9598 55.632 13.242L51.5429 10.2681L49.9793 5.45902C49.6014 4.29435 48.5233 3.51222 47.2991 3.51222H42.2435L38.1543 0.538277C37.1621 -0.179426 35.8348 -0.179426 34.8426 0.538277L30.7534 3.51222H25.6978C24.4736 3.51222 23.3955 4.29439 23.0176 5.45902L21.454 10.2681L17.3649 13.242C16.3726 13.964 15.9646 15.2276 16.3426 16.3922L17.9061 21.2013L16.3426 26.0104C15.9646 27.175 16.3769 28.4428 17.3649 29.1606L21.454 32.1345L23.0176 36.9436C23.2323 37.6011 23.6704 38.1383 24.2289 38.4821L16.2052 53.7946C16.2009 53.8075 16.1966 53.8161 16.188 53.829C16.1794 53.8462 16.1709 53.8634 16.1666 53.8806C16.158 53.8978 16.1537 53.9149 16.1451 53.9321C16.1408 53.945 16.1365 53.9622 16.1322 53.9751C16.1236 53.9966 16.1193 54.0138 16.115 54.0353C16.1107 54.0482 16.1064 54.0611 16.1064 54.074C16.1021 54.0954 16.0978 54.1126 16.0978 54.1341C16.0935 54.147 16.0935 54.1599 16.0935 54.1728C16.0892 54.1943 16.0892 54.2115 16.0892 54.233V54.2759V54.3275L16.0938 54.3189ZM24.3065 54.2802L23.9457 51.5297L27.5408 44.6664C27.8114 44.1507 27.6139 43.5146 27.0984 43.2481C26.583 42.9774 25.9473 43.1751 25.6809 43.6908L22.0858 50.5541L19.6203 51.8219L26.3983 38.8814H30.7624L31.935 39.7323L24.3151 54.2802L24.3065 54.2802ZM46.6074 38.8819L53.3855 51.8224L50.92 50.5546L47.3248 43.6913C47.0542 43.1756 46.4185 42.9779 45.9073 43.2486C45.3919 43.5194 45.1943 44.1554 45.4649 44.6669L49.06 51.5302L48.6993 54.2807L41.0794 39.7328L42.252 38.8819H46.6161L46.6074 38.8819ZM23.3565 31.1591C23.3221 31.0559 23.2748 30.9528 23.2104 30.8625C23.1417 30.7637 23.0558 30.682 22.9613 30.6133L18.6059 27.4459C18.3482 27.2568 18.2494 26.9517 18.3482 26.6465L20.0105 21.5238C20.0448 21.4164 20.0663 21.3089 20.0663 21.1929C20.0663 21.0768 20.0491 20.9608 20.0105 20.8491L18.3482 15.7263C18.2494 15.4212 18.3482 15.1161 18.6059 14.927L22.9613 11.7596C23.0472 11.6952 23.1288 11.6221 23.1933 11.5319C23.2663 11.433 23.3178 11.3299 23.3565 11.2138L25.0187 6.09109C25.1175 5.78597 25.3795 5.59686 25.6974 5.59686H31.0837C31.1953 5.59257 31.307 5.58397 31.4144 5.54529C31.5261 5.51091 31.6292 5.45504 31.7237 5.38628L36.0791 2.21893C36.3368 2.02982 36.6589 2.02982 36.9209 2.21893L41.2763 5.38628C41.3622 5.45075 41.4653 5.50232 41.5727 5.54099C41.6844 5.57967 41.8046 5.59686 41.9163 5.59686H47.3026C47.6204 5.59686 47.8824 5.78596 47.9812 6.09109L49.6435 11.2138C49.6779 11.3213 49.7294 11.4244 49.7938 11.5147C49.8626 11.6092 49.9442 11.6909 50.0387 11.7553L54.3941 14.9227C54.6518 15.1118 54.7506 15.4169 54.6518 15.722L52.9895 20.8448C52.9509 20.9522 52.9337 21.0683 52.9337 21.1886C52.9337 21.3003 52.9552 21.4121 52.9895 21.5195L54.6518 26.6422C54.7506 26.9474 54.6518 27.2525 54.3941 27.4416L50.0387 30.609C49.9485 30.6734 49.8712 30.7508 49.8024 30.841C49.7294 30.9356 49.6779 31.043 49.6435 31.1548L47.9813 36.2775C47.8825 36.5826 47.6205 36.7717 47.3026 36.7717H47.2639H47.2553H41.9163C41.8089 36.7717 41.6972 36.7846 41.5941 36.819C41.4781 36.8534 41.375 36.9093 41.2805 36.978L36.9252 40.1454C36.6674 40.3345 36.3453 40.3345 36.0833 40.1454L31.7279 36.978C31.642 36.9136 31.5389 36.862 31.4358 36.8233C31.3241 36.7846 31.2082 36.7717 31.0922 36.7674H25.7531H25.7445H25.7058C25.388 36.7674 25.126 36.5783 25.0272 36.2732L23.3649 31.1505L23.3565 31.1591ZM70.0937 38.5466C67.8558 37.8418 65.4634 39.0882 64.7589 41.3229L60.76 54.0136C59.7893 54.0738 58.8744 54.4563 58.1528 55.1181L50.5673 62.0717C50.0862 62.5144 49.5579 62.7421 48.9093 62.7894C46.474 62.9699 44.2275 64.0701 42.5867 65.8837C40.933 67.7145 39.8419 71.7844 39.7861 74.7025L38.9786 74.4489C38.7123 74.3672 38.4245 74.3887 38.1754 74.5177C37.9262 74.6466 37.7415 74.8701 37.6599 75.1365L36.5045 78.7981L35.349 75.1365C35.2674 74.8701 35.0784 74.6466 34.8336 74.5177C34.5844 74.3887 34.2966 74.3629 34.0303 74.4489L33.2228 74.7025C33.167 71.7844 32.0759 67.7144 30.4223 65.8837C28.7814 64.0701 26.5394 62.97 24.0996 62.7894C23.4467 62.7421 22.9227 62.5144 22.4416 62.0717L14.8561 55.1181C14.1302 54.4563 13.2196 54.0738 12.2489 54.0136L8.24998 41.3229C7.54555 39.0838 5.15307 37.8375 2.91517 38.5466C0.797566 39.2128 -0.379333 41.4175 0.110318 43.7855L3.52083 60.1597C3.71412 61.0794 4.12218 61.853 4.77074 62.5319L19.0908 77.4836L19.6621 78.9835L19.2927 79.0995C19.0264 79.1812 18.803 79.3703 18.6741 79.6152C18.5453 79.8645 18.5195 80.1525 18.6054 80.4189L20.7616 87.2651C20.9034 87.7121 21.32 88 21.7624 88C21.8655 88 21.9729 87.9828 22.0803 87.9484L36.4993 83.3972L50.9183 87.9484C51.0257 87.9828 51.1288 88 51.2362 88C51.6829 88 52.0952 87.7121 52.237 87.2651L54.3932 80.4189C54.4748 80.1525 54.4533 79.8645 54.3245 79.6152C54.1956 79.366 53.9722 79.1812 53.7059 79.0995L53.3365 78.9835L53.9078 77.4836L68.2279 62.5319C68.8764 61.8529 69.2845 61.0793 69.4778 60.1597L72.8883 43.7855C73.3822 41.4175 72.201 39.2171 70.0834 38.5466H70.0937ZM20.9725 76.5331C20.921 76.3999 20.848 76.2796 20.7492 76.1807L6.27849 61.075C5.9005 60.6796 5.68144 60.2628 5.56976 59.7255L2.15925 43.3513C1.92731 42.2468 2.32677 40.9318 3.53804 40.5492C4.08354 40.3773 4.66337 40.4289 5.17457 40.6953C5.6857 40.9618 6.06369 41.4087 6.2355 41.9545L10.1614 54.4043C9.66743 54.6364 9.22072 54.963 8.84276 55.3799C8.0782 56.2136 7.68301 57.3009 7.73458 58.4398C7.78613 59.5787 8.27149 60.6273 9.10479 61.3922L14.083 65.9563C14.5125 66.3474 15.174 66.3173 15.5692 65.8918C15.9601 65.4621 15.93 64.8002 15.5048 64.4048L10.5266 59.8408C10.1056 59.454 9.86081 58.9254 9.83503 58.3494C9.80926 57.7736 10.0068 57.2235 10.3934 56.8023C10.78 56.3812 11.3083 56.1362 11.8839 56.1104C12.4595 56.0846 13.0092 56.2823 13.4302 56.6691L21.0156 63.6227C21.8532 64.3877 22.8068 64.8045 23.9408 64.8861C25.8351 65.028 27.5832 65.8832 28.8589 67.2928C30.2592 68.8443 31.2429 72.9829 31.1097 75.3638L21.6644 78.3463L20.9728 76.5284L20.9725 76.5331ZM22.4502 85.6269L20.9254 80.7878L33.6565 76.7696L35.1813 81.6087L22.4502 85.6269ZM50.5504 85.6269L37.8192 81.6087L39.3441 76.7696L52.0752 80.7878L50.5504 85.6269ZM70.8412 43.3552L67.4307 59.7294C67.3191 60.2666 67.1 60.6792 66.722 61.0789L52.2513 76.1846C52.1525 76.2877 52.0795 76.4081 52.028 76.537L51.3364 78.3549L41.8911 75.3723C41.7579 72.9914 42.7416 68.8528 44.1419 67.3014C45.4176 65.8918 47.1658 65.0365 49.06 64.8947C50.1896 64.8088 51.1475 64.3962 51.9852 63.6313L59.5706 56.6777C59.9916 56.2909 60.5414 56.0932 61.1169 56.119C61.6925 56.1448 62.2251 56.3897 62.6074 56.8109C62.994 57.2321 63.1916 57.7822 63.1658 58.358C63.14 58.9339 62.8952 59.4668 62.4742 59.8493L57.496 64.4134C57.0665 64.8045 57.0407 65.4706 57.4316 65.9004C57.8225 66.3302 58.4882 66.356 58.9178 65.9649L63.896 61.4008C64.7293 60.6358 65.2189 59.5872 65.2662 58.4483C65.3178 57.3094 64.9226 56.2222 64.1581 55.3885C63.7801 54.9759 63.3291 54.645 62.8394 54.4129L66.7653 41.9631C66.9371 41.4173 67.3108 40.9703 67.8262 40.7039C68.3374 40.4374 68.9215 40.3859 69.4628 40.5578C70.6698 40.9403 71.0692 42.2554 70.8416 43.3599L70.8412 43.3552Z" fill="white"/>
</svg>
